<?xml version="1.0" encoding="utf-8" standalone="no"?>
<!DOCTYPE svg PUBLIC "-//W3C//DTD SVG 1.1//EN"
  "http://www.w3.org/Graphics/SVG/1.1/DTD/svg11.dtd">
<svg xmlns:xlink="http://www.w3.org/1999/xlink" width="460.8pt" height="345.6pt" viewBox="0 0 460.8 345.6" xmlns="http://www.w3.org/2000/svg" version="1.1">
 <metadata>
  <rdf:RDF xmlns:dc="http://purl.org/dc/elements/1.1/" xmlns:cc="http://creativecommons.org/ns#" xmlns:rdf="http://www.w3.org/1999/02/22-rdf-syntax-ns#">
   <cc:Work>
    <dc:type rdf:resource="http://purl.org/dc/dcmitype/StillImage"/>
    <dc:date>1980-01-01T00:00:00+00:00</dc:date>
    <dc:format>image/svg+xml</dc:format>
    <dc:creator>
     <cc:Agent>
      <dc:title>Matplotlib v3.8.2, https://matplotlib.org/</dc:title>
     </cc:Agent>
    </dc:creator>
   </cc:Work>
  </rdf:RDF>
 </metadata>
 <defs>
  <style type="text/css">*{stroke-linejoin: round; stroke-linecap: butt}</style>
 </defs>
 <g id="figure_1">
  <g id="patch_1">
   <path d="M 0 345.6 
L 460.8 345.6 
L 460.8 0 
L 0 0 
z
" style="fill: #ffffff"/>
  </g>
  <g id="axes_1">
   <g id="patch_2">
    <path d="M 57.6 307.584 
L 414.72 307.584 
L 414.72 41.472 
L 57.6 41.472 
z
" style="fill: #ffffff"/>
   </g>
   <g id="QuadContourSet_1">
    <path d="M 61.207273 205.8432 
L 64.814545 205.8432 
L 68.421818 205.8432 
L 72.029091 205.8432 
L 75.636364 205.8432 
L 79.243636 205.8432 
L 82.850909 205.8432 
L 86.458182 205.8432 
L 90.065455 205.8432 
L 93.672727 205.8432 
L 97.28 205.8432 
L 100.887273 205.8432 
L 104.494545 205.8432 
L 108.101818 205.8432 
L 111.709091 205.8432 
L 115.316364 205.8432 
L 118.923636 205.8432 
L 122.530909 205.8432 
L 126.138182 205.8432 
L 129.745455 205.8432 
L 133.352727 205.8432 
L 136.96 205.8432 
L 140.567273 205.8432 
L 144.174545 205.8432 
L 147.781818 205.8432 
L 151.389091 205.8432 
L 154.996364 205.8432 
L 158.603636 205.8432 
L 162.210909 205.8432 
L 165.818182 205.8432 
L 169.425455 205.8432 
L 173.032727 205.8432 
L 176.64 205.8432 
L 180.247273 205.8432 
L 183.854545 205.8432 
L 187.461818 205.8432 
L 188.002909 205.44 
L 188.002909 202.752 
L 188.002909 200.064 
L 188.002909 197.376 
L 188.002909 194.688 
L 188.002909 192 
L 188.002909 189.312 
L 188.002909 186.624 
L 188.002909 183.936 
L 188.002909 181.248 
L 188.002909 178.56 
L 188.002909 175.872 
L 188.002909 173.184 
L 188.002909 170.496 
L 188.002909 167.808 
L 188.002909 165.12 
L 188.002909 162.432 
L 188.002909 159.744 
L 191.069091 157.4592 
L 194.676364 157.4592 
L 198.283636 157.4592 
L 201.890909 157.4592 
L 205.498182 157.4592 
L 209.105455 157.4592 
L 212.712727 157.4592 
L 216.32 157.4592 
L 219.927273 157.4592 
L 223.534545 157.4592 
L 227.141818 157.4592 
L 230.749091 157.4592 
L 234.356364 157.4592 
L 237.963636 157.4592 
L 241.029818 159.744 
L 241.029818 162.432 
L 241.029818 165.12 
L 241.029818 167.808 
L 241.029818 170.496 
L 241.029818 173.184 
L 241.029818 175.872 
L 241.029818 178.56 
L 241.570909 178.9632 
L 245.178182 178.9632 
L 248.244364 181.248 
L 248.244364 183.936 
L 248.244364 186.624 
L 248.244364 189.312 
L 248.244364 192 
L 248.244364 194.688 
L 248.244364 197.376 
L 248.244364 200.064 
L 248.244364 202.752 
L 248.244364 205.44 
L 248.785455 205.8432 
L 252.392727 205.8432 
L 256 205.8432 
L 259.607273 205.8432 
L 263.214545 205.8432 
L 263.755636 205.44 
L 263.755636 202.752 
L 263.755636 200.064 
L 263.755636 197.376 
L 266.821818 195.0912 
L 270.429091 195.0912 
L 274.036364 195.0912 
L 277.643636 195.0912 
L 278.184727 194.688 
L 278.184727 192 
L 278.184727 189.312 
L 278.184727 186.624 
L 278.184727 183.936 
L 278.184727 181.248 
L 278.184727 178.56 
L 278.184727 175.872 
L 278.184727 173.184 
L 278.184727 170.496 
L 278.184727 167.808 
L 278.184727 165.12 
L 278.184727 162.432 
L 278.184727 159.744 
L 278.184727 157.056 
L 278.184727 154.368 
L 278.184727 151.68 
L 278.184727 148.992 
L 278.184727 146.304 
L 278.184727 143.616 
L 278.184727 140.928 
L 278.184727 138.24 
L 278.184727 135.552 
L 278.184727 132.864 
L 278.184727 130.176 
L 278.184727 127.488 
L 278.184727 124.8 
L 278.184727 122.112 
L 278.184727 119.424 
L 278.184727 116.736 
L 278.184727 114.048 
L 278.184727 111.36 
L 278.184727 108.672 
L 278.184727 105.984 
L 278.184727 103.296 
L 278.184727 100.608 
L 278.184727 97.92 
L 278.184727 95.232 
L 278.184727 92.544 
L 278.184727 89.856 
L 278.184727 87.168 
L 278.184727 84.48 
L 278.184727 81.792 
L 278.184727 79.104 
L 278.184727 76.416 
L 278.184727 73.728 
L 278.184727 71.04 
L 278.184727 68.352 
L 278.184727 65.664 
L 278.184727 62.976 
L 278.184727 60.288 
L 278.184727 57.6 
L 278.184727 54.912 
L 278.184727 52.224 
L 278.184727 49.536 
L 278.184727 46.848 
L 278.184727 44.16 
L 278.184727 41.472 
L 277.643636 41.472 
L 274.036364 41.472 
L 270.429091 41.472 
L 266.821818 41.472 
L 263.214545 41.472 
L 259.607273 41.472 
L 256 41.472 
L 252.392727 41.472 
L 248.785455 41.472 
L 245.178182 41.472 
L 241.570909 41.472 
L 237.963636 41.472 
L 234.356364 41.472 
L 230.749091 41.472 
L 227.141818 41.472 
L 223.534545 41.472 
L 219.927273 41.472 
L 216.32 41.472 
L 212.712727 41.472 
L 209.105455 41.472 
L 205.498182 41.472 
L 201.890909 41.472 
L 198.283636 41.472 
L 194.676364 41.472 
L 191.069091 41.472 
L 187.461818 41.472 
L 183.854545 41.472 
L 180.247273 41.472 
L 176.64 41.472 
L 173.032727 41.472 
L 169.425455 41.472 
L 165.818182 41.472 
L 162.210909 41.472 
L 158.603636 41.472 
L 154.996364 41.472 
L 151.389091 41.472 
L 147.781818 41.472 
L 144.174545 41.472 
L 140.567273 41.472 
L 136.96 41.472 
L 133.352727 41.472 
L 129.745455 41.472 
L 126.138182 41.472 
L 122.530909 41.472 
L 118.923636 41.472 
L 115.316364 41.472 
L 111.709091 41.472 
L 108.101818 41.472 
L 104.494545 41.472 
L 100.887273 41.472 
L 97.28 41.472 
L 93.672727 41.472 
L 90.065455 41.472 
L 86.458182 41.472 
L 82.850909 41.472 
L 79.243636 41.472 
L 75.636364 41.472 
L 72.029091 41.472 
L 68.421818 41.472 
L 64.814545 41.472 
L 61.207273 41.472 
L 57.6 41.472 
L 57.6 44.16 
L 57.6 46.848 
L 57.6 49.536 
L 57.6 52.224 
L 57.6 54.912 
L 57.6 57.6 
L 57.6 60.288 
L 57.6 62.976 
L 57.6 65.664 
L 57.6 68.352 
L 57.6 71.04 
L 57.6 73.728 
L 57.6 76.416 
L 57.6 79.104 
L 57.6 81.792 
L 57.6 84.48 
L 57.6 87.168 
L 57.6 89.856 
L 57.6 92.544 
L 57.6 95.232 
L 57.6 97.92 
L 57.6 100.608 
L 57.6 103.296 
L 57.6 105.984 
L 57.6 108.672 
L 57.6 111.36 
L 57.6 114.048 
L 57.6 116.736 
L 57.6 119.424 
L 57.6 122.112 
L 57.6 124.8 
L 57.6 127.488 
L 57.6 130.176 
L 57.6 132.864 
L 57.6 135.552 
L 57.6 138.24 
L 57.6 140.928 
L 57.6 143.616 
L 57.6 146.304 
L 57.6 148.992 
L 57.6 151.68 
L 57.6 154.368 
L 57.6 157.056 
L 57.6 159.744 
L 57.6 162.432 
L 57.6 165.12 
L 57.6 167.808 
L 57.6 170.496 
L 57.6 173.184 
L 57.6 175.872 
L 57.6 178.56 
L 57.6 181.248 
L 57.6 183.936 
L 57.6 186.624 
L 57.6 189.312 
L 57.6 192 
L 57.6 194.688 
L 57.6 197.376 
L 57.6 200.064 
L 57.6 202.752 
L 57.6 205.44 
L 57.6 205.8432 
z
" clip-path="url(#p5c6618b957)" style="fill: #481b6d; fill-opacity: 0.5"/>
    <path d="M 61.207273 206.2464 
L 64.814545 206.2464 
L 68.421818 206.2464 
L 72.029091 206.2464 
L 75.636364 206.2464 
L 79.243636 206.2464 
L 82.850909 206.2464 
L 86.458182 206.2464 
L 90.065455 206.2464 
L 93.672727 206.2464 
L 97.28 206.2464 
L 100.887273 206.2464 
L 104.494545 206.2464 
L 108.101818 206.2464 
L 111.709091 206.2464 
L 115.316364 206.2464 
L 118.923636 206.2464 
L 122.530909 206.2464 
L 126.138182 206.2464 
L 129.745455 206.2464 
L 133.352727 206.2464 
L 136.96 206.2464 
L 140.567273 206.2464 
L 144.174545 206.2464 
L 147.781818 206.2464 
L 151.389091 206.2464 
L 154.996364 206.2464 
L 158.603636 206.2464 
L 162.210909 206.2464 
L 165.818182 206.2464 
L 169.425455 206.2464 
L 173.032727 206.2464 
L 176.64 206.2464 
L 180.247273 206.2464 
L 183.854545 206.2464 
L 187.461818 206.2464 
L 188.544 205.44 
L 188.544 202.752 
L 188.544 200.064 
L 188.544 197.376 
L 188.544 194.688 
L 188.544 192 
L 188.544 189.312 
L 188.544 186.624 
L 188.544 183.936 
L 188.544 181.248 
L 188.544 178.56 
L 188.544 175.872 
L 188.544 173.184 
L 188.544 170.496 
L 188.544 167.808 
L 188.544 165.12 
L 188.544 162.432 
L 188.544 159.744 
L 191.069091 157.8624 
L 194.676364 157.8624 
L 198.283636 157.8624 
L 201.890909 157.8624 
L 205.498182 157.8624 
L 209.105455 157.8624 
L 212.712727 157.8624 
L 216.32 157.8624 
L 219.927273 157.8624 
L 223.534545 157.8624 
L 227.141818 157.8624 
L 230.749091 157.8624 
L 234.356364 157.8624 
L 237.963636 157.8624 
L 240.488727 159.744 
L 240.488727 162.432 
L 240.488727 165.12 
L 240.488727 167.808 
L 240.488727 170.496 
L 240.488727 173.184 
L 240.488727 175.872 
L 240.488727 178.56 
L 241.570909 179.3664 
L 245.178182 179.3664 
L 247.703273 181.248 
L 247.703273 183.936 
L 247.703273 186.624 
L 247.703273 189.312 
L 247.703273 192 
L 247.703273 194.688 
L 247.703273 197.376 
L 247.703273 200.064 
L 247.703273 202.752 
L 247.703273 205.44 
L 248.785455 206.2464 
L 252.392727 206.2464 
L 256 206.2464 
L 259.607273 206.2464 
L 263.214545 206.2464 
L 264.296727 205.44 
L 264.296727 202.752 
L 264.296727 200.064 
L 264.296727 197.376 
L 266.821818 195.4944 
L 270.429091 195.4944 
L 274.036364 195.4944 
L 277.643636 195.4944 
L 278.725818 194.688 
L 278.725818 192 
L 278.725818 189.312 
L 278.725818 186.624 
L 278.725818 183.936 
L 278.725818 181.248 
L 278.725818 178.56 
L 278.725818 175.872 
L 278.725818 173.184 
L 278.725818 170.496 
L 278.725818 167.808 
L 278.725818 165.12 
L 278.725818 162.432 
L 278.725818 159.744 
L 278.725818 157.056 
L 278.725818 154.368 
L 278.725818 151.68 
L 278.725818 148.992 
L 278.725818 146.304 
L 278.725818 143.616 
L 278.725818 140.928 
L 278.725818 138.24 
L 278.725818 135.552 
L 278.725818 132.864 
L 278.725818 130.176 
L 278.725818 127.488 
L 278.725818 124.8 
L 278.725818 122.112 
L 278.725818 119.424 
L 278.725818 116.736 
L 278.725818 114.048 
L 278.725818 111.36 
L 278.725818 108.672 
L 278.725818 105.984 
L 278.725818 103.296 
L 278.725818 100.608 
L 278.725818 97.92 
L 278.725818 95.232 
L 278.725818 92.544 
L 278.725818 89.856 
L 278.725818 87.168 
L 278.725818 84.48 
L 278.725818 81.792 
L 278.725818 79.104 
L 278.725818 76.416 
L 278.725818 73.728 
L 278.725818 71.04 
L 278.725818 68.352 
L 278.725818 65.664 
L 278.725818 62.976 
L 278.725818 60.288 
L 278.725818 57.6 
L 278.725818 54.912 
L 278.725818 52.224 
L 278.725818 49.536 
L 278.725818 46.848 
L 278.725818 44.16 
L 278.725818 41.472 
L 278.184727 41.472 
L 278.184727 44.16 
L 278.184727 46.848 
L 278.184727 49.536 
L 278.184727 52.224 
L 278.184727 54.912 
L 278.184727 57.6 
L 278.184727 60.288 
L 278.184727 62.976 
L 278.184727 65.664 
L 278.184727 68.352 
L 278.184727 71.04 
L 278.184727 73.728 
L 278.184727 76.416 
L 278.184727 79.104 
L 278.184727 81.792 
L 278.184727 84.48 
L 278.184727 87.168 
L 278.184727 89.856 
L 278.184727 92.544 
L 278.184727 95.232 
L 278.184727 97.92 
L 278.184727 100.608 
L 278.184727 103.296 
L 278.184727 105.984 
L 278.184727 108.672 
L 278.184727 111.36 
L 278.184727 114.048 
L 278.184727 116.736 
L 278.184727 119.424 
L 278.184727 122.112 
L 278.184727 124.8 
L 278.184727 127.488 
L 278.184727 130.176 
L 278.184727 132.864 
L 278.184727 135.552 
L 278.184727 138.24 
L 278.184727 140.928 
L 278.184727 143.616 
L 278.184727 146.304 
L 278.184727 148.992 
L 278.184727 151.68 
L 278.184727 154.368 
L 278.184727 157.056 
L 278.184727 159.744 
L 278.184727 162.432 
L 278.184727 165.12 
L 278.184727 167.808 
L 278.184727 170.496 
L 278.184727 173.184 
L 278.184727 175.872 
L 278.184727 178.56 
L 278.184727 181.248 
L 278.184727 183.936 
L 278.184727 186.624 
L 278.184727 189.312 
L 278.184727 192 
L 278.184727 194.688 
L 277.643636 195.0912 
L 274.036364 195.0912 
L 270.429091 195.0912 
L 266.821818 195.0912 
L 263.755636 197.376 
L 263.755636 200.064 
L 263.755636 202.752 
L 263.755636 205.44 
L 263.214545 205.8432 
L 259.607273 205.8432 
L 256 205.8432 
L 252.392727 205.8432 
L 248.785455 205.8432 
L 248.244364 205.44 
L 248.244364 202.752 
L 248.244364 200.064 
L 248.244364 197.376 
L 248.244364 194.688 
L 248.244364 192 
L 248.244364 189.312 
L 248.244364 186.624 
L 248.244364 183.936 
L 248.244364 181.248 
L 245.178182 178.9632 
L 241.570909 178.9632 
L 241.029818 178.56 
L 241.029818 175.872 
L 241.029818 173.184 
L 241.029818 170.496 
L 241.029818 167.808 
L 241.029818 165.12 
L 241.029818 162.432 
L 241.029818 159.744 
L 237.963636 157.4592 
L 234.356364 157.4592 
L 230.749091 157.4592 
L 227.141818 157.4592 
L 223.534545 157.4592 
L 219.927273 157.4592 
L 216.32 157.4592 
L 212.712727 157.4592 
L 209.105455 157.4592 
L 205.498182 157.4592 
L 201.890909 157.4592 
L 198.283636 157.4592 
L 194.676364 157.4592 
L 191.069091 157.4592 
L 188.002909 159.744 
L 188.002909 162.432 
L 188.002909 165.12 
L 188.002909 167.808 
L 188.002909 170.496 
L 188.002909 173.184 
L 188.002909 175.872 
L 188.002909 178.56 
L 188.002909 181.248 
L 188.002909 183.936 
L 188.002909 186.624 
L 188.002909 189.312 
L 188.002909 192 
L 188.002909 194.688 
L 188.002909 197.376 
L 188.002909 200.064 
L 188.002909 202.752 
L 188.002909 205.44 
L 187.461818 205.8432 
L 183.854545 205.8432 
L 180.247273 205.8432 
L 176.64 205.8432 
L 173.032727 205.8432 
L 169.425455 205.8432 
L 165.818182 205.8432 
L 162.210909 205.8432 
L 158.603636 205.8432 
L 154.996364 205.8432 
L 151.389091 205.8432 
L 147.781818 205.8432 
L 144.174545 205.8432 
L 140.567273 205.8432 
L 136.96 205.8432 
L 133.352727 205.8432 
L 129.745455 205.8432 
L 126.138182 205.8432 
L 122.530909 205.8432 
L 118.923636 205.8432 
L 115.316364 205.8432 
L 111.709091 205.8432 
L 108.101818 205.8432 
L 104.494545 205.8432 
L 100.887273 205.8432 
L 97.28 205.8432 
L 93.672727 205.8432 
L 90.065455 205.8432 
L 86.458182 205.8432 
L 82.850909 205.8432 
L 79.243636 205.8432 
L 75.636364 205.8432 
L 72.029091 205.8432 
L 68.421818 205.8432 
L 64.814545 205.8432 
L 61.207273 205.8432 
L 57.6 205.8432 
L 57.6 206.2464 
z
" clip-path="url(#p5c6618b957)" style="fill: #3f4788; fill-opacity: 0.5"/>
    <path d="M 61.207273 206.6496 
L 64.814545 206.6496 
L 68.421818 206.6496 
L 72.029091 206.6496 
L 75.636364 206.6496 
L 79.243636 206.6496 
L 82.850909 206.6496 
L 86.458182 206.6496 
L 90.065455 206.6496 
L 93.672727 206.6496 
L 97.28 206.6496 
L 100.887273 206.6496 
L 104.494545 206.6496 
L 108.101818 206.6496 
L 111.709091 206.6496 
L 115.316364 206.6496 
L 118.923636 206.6496 
L 122.530909 206.6496 
L 126.138182 206.6496 
L 129.745455 206.6496 
L 133.352727 206.6496 
L 136.96 206.6496 
L 140.567273 206.6496 
L 144.174545 206.6496 
L 147.781818 206.6496 
L 151.389091 206.6496 
L 154.996364 206.6496 
L 158.603636 206.6496 
L 162.210909 206.6496 
L 165.818182 206.6496 
L 169.425455 206.6496 
L 173.032727 206.6496 
L 176.64 206.6496 
L 180.247273 206.6496 
L 183.854545 206.6496 
L 187.461818 206.6496 
L 189.085091 205.44 
L 189.085091 202.752 
L 189.085091 200.064 
L 189.085091 197.376 
L 189.085091 194.688 
L 189.085091 192 
L 189.085091 189.312 
L 189.085091 186.624 
L 189.085091 183.936 
L 189.085091 181.248 
L 189.085091 178.56 
L 189.085091 175.872 
L 189.085091 173.184 
L 189.085091 170.496 
L 189.085091 167.808 
L 189.085091 165.12 
L 189.085091 162.432 
L 189.085091 159.744 
L 191.069091 158.2656 
L 194.676364 158.2656 
L 198.283636 158.2656 
L 201.890909 158.2656 
L 205.498182 158.2656 
L 209.105455 158.2656 
L 212.712727 158.2656 
L 216.32 158.2656 
L 219.927273 158.2656 
L 223.534545 158.2656 
L 227.141818 158.2656 
L 230.749091 158.2656 
L 234.356364 158.2656 
L 237.963636 158.2656 
L 239.947636 159.744 
L 239.947636 162.432 
L 239.947636 165.12 
L 239.947636 167.808 
L 239.947636 170.496 
L 239.947636 173.184 
L 239.947636 175.872 
L 239.947636 178.56 
L 241.570909 179.7696 
L 245.178182 179.7696 
L 247.162182 181.248 
L 247.162182 183.936 
L 247.162182 186.624 
L 247.162182 189.312 
L 247.162182 192 
L 247.162182 194.688 
L 247.162182 197.376 
L 247.162182 200.064 
L 247.162182 202.752 
L 247.162182 205.44 
L 248.785455 206.6496 
L 252.392727 206.6496 
L 256 206.6496 
L 259.607273 206.6496 
L 263.214545 206.6496 
L 264.837818 205.44 
L 264.837818 202.752 
L 264.837818 200.064 
L 264.837818 197.376 
L 266.821818 195.8976 
L 270.429091 195.8976 
L 274.036364 195.8976 
L 277.643636 195.8976 
L 279.266909 194.688 
L 279.266909 192 
L 279.266909 189.312 
L 279.266909 186.624 
L 279.266909 183.936 
L 279.266909 181.248 
L 279.266909 178.56 
L 279.266909 175.872 
L 279.266909 173.184 
L 279.266909 170.496 
L 279.266909 167.808 
L 279.266909 165.12 
L 279.266909 162.432 
L 279.266909 159.744 
L 279.266909 157.056 
L 279.266909 154.368 
L 279.266909 151.68 
L 279.266909 148.992 
L 279.266909 146.304 
L 279.266909 143.616 
L 279.266909 140.928 
L 279.266909 138.24 
L 279.266909 135.552 
L 279.266909 132.864 
L 279.266909 130.176 
L 279.266909 127.488 
L 279.266909 124.8 
L 279.266909 122.112 
L 279.266909 119.424 
L 279.266909 116.736 
L 279.266909 114.048 
L 279.266909 111.36 
L 279.266909 108.672 
L 279.266909 105.984 
L 279.266909 103.296 
L 279.266909 100.608 
L 279.266909 97.92 
L 279.266909 95.232 
L 279.266909 92.544 
L 279.266909 89.856 
L 279.266909 87.168 
L 279.266909 84.48 
L 279.266909 81.792 
L 279.266909 79.104 
L 279.266909 76.416 
L 279.266909 73.728 
L 279.266909 71.04 
L 279.266909 68.352 
L 279.266909 65.664 
L 279.266909 62.976 
L 279.266909 60.288 
L 279.266909 57.6 
L 279.266909 54.912 
L 279.266909 52.224 
L 279.266909 49.536 
L 279.266909 46.848 
L 279.266909 44.16 
L 279.266909 41.472 
L 278.725818 41.472 
L 278.725818 44.16 
L 278.725818 46.848 
L 278.725818 49.536 
L 278.725818 52.224 
L 278.725818 54.912 
L 278.725818 57.6 
L 278.725818 60.288 
L 278.725818 62.976 
L 278.725818 65.664 
L 278.725818 68.352 
L 278.725818 71.04 
L 278.725818 73.728 
L 278.725818 76.416 
L 278.725818 79.104 
L 278.725818 81.792 
L 278.725818 84.48 
L 278.725818 87.168 
L 278.725818 89.856 
L 278.725818 92.544 
L 278.725818 95.232 
L 278.725818 97.92 
L 278.725818 100.608 
L 278.725818 103.296 
L 278.725818 105.984 
L 278.725818 108.672 
L 278.725818 111.36 
L 278.725818 114.048 
L 278.725818 116.736 
L 278.725818 119.424 
L 278.725818 122.112 
L 278.725818 124.8 
L 278.725818 127.488 
L 278.725818 130.176 
L 278.725818 132.864 
L 278.725818 135.552 
L 278.725818 138.24 
L 278.725818 140.928 
L 278.725818 143.616 
L 278.725818 146.304 
L 278.725818 148.992 
L 278.725818 151.68 
L 278.725818 154.368 
L 278.725818 157.056 
L 278.725818 159.744 
L 278.725818 162.432 
L 278.725818 165.12 
L 278.725818 167.808 
L 278.725818 170.496 
L 278.725818 173.184 
L 278.725818 175.872 
L 278.725818 178.56 
L 278.725818 181.248 
L 278.725818 183.936 
L 278.725818 186.624 
L 278.725818 189.312 
L 278.725818 192 
L 278.725818 194.688 
L 277.643636 195.4944 
L 274.036364 195.4944 
L 270.429091 195.4944 
L 266.821818 195.4944 
L 264.296727 197.376 
L 264.296727 200.064 
L 264.296727 202.752 
L 264.296727 205.44 
L 263.214545 206.2464 
L 259.607273 206.2464 
L 256 206.2464 
L 252.392727 206.2464 
L 248.785455 206.2464 
L 247.703273 205.44 
L 247.703273 202.752 
L 247.703273 200.064 
L 247.703273 197.376 
L 247.703273 194.688 
L 247.703273 192 
L 247.703273 189.312 
L 247.703273 186.624 
L 247.703273 183.936 
L 247.703273 181.248 
L 245.178182 179.3664 
L 241.570909 179.3664 
L 240.488727 178.56 
L 240.488727 175.872 
L 240.488727 173.184 
L 240.488727 170.496 
L 240.488727 167.808 
L 240.488727 165.12 
L 240.488727 162.432 
L 240.488727 159.744 
L 237.963636 157.8624 
L 234.356364 157.8624 
L 230.749091 157.8624 
L 227.141818 157.8624 
L 223.534545 157.8624 
L 219.927273 157.8624 
L 216.32 157.8624 
L 212.712727 157.8624 
L 209.105455 157.8624 
L 205.498182 157.8624 
L 201.890909 157.8624 
L 198.283636 157.8624 
L 194.676364 157.8624 
L 191.069091 157.8624 
L 188.544 159.744 
L 188.544 162.432 
L 188.544 165.12 
L 188.544 167.808 
L 188.544 170.496 
L 188.544 173.184 
L 188.544 175.872 
L 188.544 178.56 
L 188.544 181.248 
L 188.544 183.936 
L 188.544 186.624 
L 188.544 189.312 
L 188.544 192 
L 188.544 194.688 
L 188.544 197.376 
L 188.544 200.064 
L 188.544 202.752 
L 188.544 205.44 
L 187.461818 206.2464 
L 183.854545 206.2464 
L 180.247273 206.2464 
L 176.64 206.2464 
L 173.032727 206.2464 
L 169.425455 206.2464 
L 165.818182 206.2464 
L 162.210909 206.2464 
L 158.603636 206.2464 
L 154.996364 206.2464 
L 151.389091 206.2464 
L 147.781818 206.2464 
L 144.174545 206.2464 
L 140.567273 206.2464 
L 136.96 206.2464 
L 133.352727 206.2464 
L 129.745455 206.2464 
L 126.138182 206.2464 
L 122.530909 206.2464 
L 118.923636 206.2464 
L 115.316364 206.2464 
L 111.709091 206.2464 
L 108.101818 206.2464 
L 104.494545 206.2464 
L 100.887273 206.2464 
L 97.28 206.2464 
L 93.672727 206.2464 
L 90.065455 206.2464 
L 86.458182 206.2464 
L 82.850909 206.2464 
L 79.243636 206.2464 
L 75.636364 206.2464 
L 72.029091 206.2464 
L 68.421818 206.2464 
L 64.814545 206.2464 
L 61.207273 206.2464 
L 57.6 206.2464 
L 57.6 206.6496 
z
" clip-path="url(#p5c6618b957)" style="fill: #2e6e8e; fill-opacity: 0.5"/>
    <path d="M 61.207273 207.0528 
L 64.814545 207.0528 
L 68.421818 207.0528 
L 72.029091 207.0528 
L 75.636364 207.0528 
L 79.243636 207.0528 
L 82.850909 207.0528 
L 86.458182 207.0528 
L 90.065455 207.0528 
L 93.672727 207.0528 
L 97.28 207.0528 
L 100.887273 207.0528 
L 104.494545 207.0528 
L 108.101818 207.0528 
L 111.709091 207.0528 
L 115.316364 207.0528 
L 118.923636 207.0528 
L 122.530909 207.0528 
L 126.138182 207.0528 
L 129.745455 207.0528 
L 133.352727 207.0528 
L 136.96 207.0528 
L 140.567273 207.0528 
L 144.174545 207.0528 
L 147.781818 207.0528 
L 151.389091 207.0528 
L 154.996364 207.0528 
L 158.603636 207.0528 
L 162.210909 207.0528 
L 165.818182 207.0528 
L 169.425455 207.0528 
L 173.032727 207.0528 
L 176.64 207.0528 
L 180.247273 207.0528 
L 183.854545 207.0528 
L 187.461818 207.0528 
L 189.626182 205.44 
L 189.626182 202.752 
L 189.626182 200.064 
L 189.626182 197.376 
L 189.626182 194.688 
L 189.626182 192 
L 189.626182 189.312 
L 189.626182 186.624 
L 189.626182 183.936 
L 189.626182 181.248 
L 189.626182 178.56 
L 189.626182 175.872 
L 189.626182 173.184 
L 189.626182 170.496 
L 189.626182 167.808 
L 189.626182 165.12 
L 189.626182 162.432 
L 189.626182 159.744 
L 191.069091 158.6688 
L 194.676364 158.6688 
L 198.283636 158.6688 
L 201.890909 158.6688 
L 205.498182 158.6688 
L 209.105455 158.6688 
L 212.712727 158.6688 
L 216.32 158.6688 
L 219.927273 158.6688 
L 223.534545 158.6688 
L 227.141818 158.6688 
L 230.749091 158.6688 
L 234.356364 158.6688 
L 237.963636 158.6688 
L 239.406545 159.744 
L 239.406545 162.432 
L 239.406545 165.12 
L 239.406545 167.808 
L 239.406545 170.496 
L 239.406545 173.184 
L 239.406545 175.872 
L 239.406545 178.56 
L 241.570909 180.1728 
L 245.178182 180.1728 
L 246.621091 181.248 
L 246.621091 183.936 
L 246.621091 186.624 
L 246.621091 189.312 
L 246.621091 192 
L 246.621091 194.688 
L 246.621091 197.376 
L 246.621091 200.064 
L 246.621091 202.752 
L 246.621091 205.44 
L 248.785455 207.0528 
L 252.392727 207.0528 
L 256 207.0528 
L 259.607273 207.0528 
L 263.214545 207.0528 
L 265.378909 205.44 
L 265.378909 202.752 
L 265.378909 200.064 
L 265.378909 197.376 
L 266.821818 196.3008 
L 270.429091 196.3008 
L 274.036364 196.3008 
L 277.643636 196.3008 
L 279.808 194.688 
L 279.808 192 
L 279.808 189.312 
L 279.808 186.624 
L 279.808 183.936 
L 279.808 181.248 
L 279.808 178.56 
L 279.808 175.872 
L 279.808 173.184 
L 279.808 170.496 
L 279.808 167.808 
L 279.808 165.12 
L 279.808 162.432 
L 279.808 159.744 
L 279.808 157.056 
L 279.808 154.368 
L 279.808 151.68 
L 279.808 148.992 
L 279.808 146.304 
L 279.808 143.616 
L 279.808 140.928 
L 279.808 138.24 
L 279.808 135.552 
L 279.808 132.864 
L 279.808 130.176 
L 279.808 127.488 
L 279.808 124.8 
L 279.808 122.112 
L 279.808 119.424 
L 279.808 116.736 
L 279.808 114.048 
L 279.808 111.36 
L 279.808 108.672 
L 279.808 105.984 
L 279.808 103.296 
L 279.808 100.608 
L 279.808 97.92 
L 279.808 95.232 
L 279.808 92.544 
L 279.808 89.856 
L 279.808 87.168 
L 279.808 84.48 
L 279.808 81.792 
L 279.808 79.104 
L 279.808 76.416 
L 279.808 73.728 
L 279.808 71.04 
L 279.808 68.352 
L 279.808 65.664 
L 279.808 62.976 
L 279.808 60.288 
L 279.808 57.6 
L 279.808 54.912 
L 279.808 52.224 
L 279.808 49.536 
L 279.808 46.848 
L 279.808 44.16 
L 279.808 41.472 
L 279.266909 41.472 
L 279.266909 44.16 
L 279.266909 46.848 
L 279.266909 49.536 
L 279.266909 52.224 
L 279.266909 54.912 
L 279.266909 57.6 
L 279.266909 60.288 
L 279.266909 62.976 
L 279.266909 65.664 
L 279.266909 68.352 
L 279.266909 71.04 
L 279.266909 73.728 
L 279.266909 76.416 
L 279.266909 79.104 
L 279.266909 81.792 
L 279.266909 84.48 
L 279.266909 87.168 
L 279.266909 89.856 
L 279.266909 92.544 
L 279.266909 95.232 
L 279.266909 97.92 
L 279.266909 100.608 
L 279.266909 103.296 
L 279.266909 105.984 
L 279.266909 108.672 
L 279.266909 111.36 
L 279.266909 114.048 
L 279.266909 116.736 
L 279.266909 119.424 
L 279.266909 122.112 
L 279.266909 124.8 
L 279.266909 127.488 
L 279.266909 130.176 
L 279.266909 132.864 
L 279.266909 135.552 
L 279.266909 138.24 
L 279.266909 140.928 
L 279.266909 143.616 
L 279.266909 146.304 
L 279.266909 148.992 
L 279.266909 151.68 
L 279.266909 154.368 
L 279.266909 157.056 
L 279.266909 159.744 
L 279.266909 162.432 
L 279.266909 165.12 
L 279.266909 167.808 
L 279.266909 170.496 
L 279.266909 173.184 
L 279.266909 175.872 
L 279.266909 178.56 
L 279.266909 181.248 
L 279.266909 183.936 
L 279.266909 186.624 
L 279.266909 189.312 
L 279.266909 192 
L 279.266909 194.688 
L 277.643636 195.8976 
L 274.036364 195.8976 
L 270.429091 195.8976 
L 266.821818 195.8976 
L 264.837818 197.376 
L 264.837818 200.064 
L 264.837818 202.752 
L 264.837818 205.44 
L 263.214545 206.6496 
L 259.607273 206.6496 
L 256 206.6496 
L 252.392727 206.6496 
L 248.785455 206.6496 
L 247.162182 205.44 
L 247.162182 202.752 
L 247.162182 200.064 
L 247.162182 197.376 
L 247.162182 194.688 
L 247.162182 192 
L 247.162182 189.312 
L 247.162182 186.624 
L 247.162182 183.936 
L 247.162182 181.248 
L 245.178182 179.7696 
L 241.570909 179.7696 
L 239.947636 178.56 
L 239.947636 175.872 
L 239.947636 173.184 
L 239.947636 170.496 
L 239.947636 167.808 
L 239.947636 165.12 
L 239.947636 162.432 
L 239.947636 159.744 
L 237.963636 158.2656 
L 234.356364 158.2656 
L 230.749091 158.2656 
L 227.141818 158.2656 
L 223.534545 158.2656 
L 219.927273 158.2656 
L 216.32 158.2656 
L 212.712727 158.2656 
L 209.105455 158.2656 
L 205.498182 158.2656 
L 201.890909 158.2656 
L 198.283636 158.2656 
L 194.676364 158.2656 
L 191.069091 158.2656 
L 189.085091 159.744 
L 189.085091 162.432 
L 189.085091 165.12 
L 189.085091 167.808 
L 189.085091 170.496 
L 189.085091 173.184 
L 189.085091 175.872 
L 189.085091 178.56 
L 189.085091 181.248 
L 189.085091 183.936 
L 189.085091 186.624 
L 189.085091 189.312 
L 189.085091 192 
L 189.085091 194.688 
L 189.085091 197.376 
L 189.085091 200.064 
L 189.085091 202.752 
L 189.085091 205.44 
L 187.461818 206.6496 
L 183.854545 206.6496 
L 180.247273 206.6496 
L 176.64 206.6496 
L 173.032727 206.6496 
L 169.425455 206.6496 
L 165.818182 206.6496 
L 162.210909 206.6496 
L 158.603636 206.6496 
L 154.996364 206.6496 
L 151.389091 206.6496 
L 147.781818 206.6496 
L 144.174545 206.6496 
L 140.567273 206.6496 
L 136.96 206.6496 
L 133.352727 206.6496 
L 129.745455 206.6496 
L 126.138182 206.6496 
L 122.530909 206.6496 
L 118.923636 206.6496 
L 115.316364 206.6496 
L 111.709091 206.6496 
L 108.101818 206.6496 
L 104.494545 206.6496 
L 100.887273 206.6496 
L 97.28 206.6496 
L 93.672727 206.6496 
L 90.065455 206.6496 
L 86.458182 206.6496 
L 82.850909 206.6496 
L 79.243636 206.6496 
L 75.636364 206.6496 
L 72.029091 206.6496 
L 68.421818 206.6496 
L 64.814545 206.6496 
L 61.207273 206.6496 
L 57.6 206.6496 
L 57.6 207.0528 
z
" clip-path="url(#p5c6618b957)" style="fill: #21918c; fill-opacity: 0.5"/>
    <path d="M 61.207273 207.456 
L 64.814545 207.456 
L 68.421818 207.456 
L 72.029091 207.456 
L 75.636364 207.456 
L 79.243636 207.456 
L 82.850909 207.456 
L 86.458182 207.456 
L 90.065455 207.456 
L 93.672727 207.456 
L 97.28 207.456 
L 100.887273 207.456 
L 104.494545 207.456 
L 108.101818 207.456 
L 111.709091 207.456 
L 115.316364 207.456 
L 118.923636 207.456 
L 122.530909 207.456 
L 126.138182 207.456 
L 129.745455 207.456 
L 133.352727 207.456 
L 136.96 207.456 
L 140.567273 207.456 
L 144.174545 207.456 
L 147.781818 207.456 
L 151.389091 207.456 
L 154.996364 207.456 
L 158.603636 207.456 
L 162.210909 207.456 
L 165.818182 207.456 
L 169.425455 207.456 
L 173.032727 207.456 
L 176.64 207.456 
L 180.247273 207.456 
L 183.854545 207.456 
L 187.461818 207.456 
L 190.167273 205.44 
L 190.167273 202.752 
L 190.167273 200.064 
L 190.167273 197.376 
L 190.167273 194.688 
L 190.167273 192 
L 190.167273 189.312 
L 190.167273 186.624 
L 190.167273 183.936 
L 190.167273 181.248 
L 190.167273 178.56 
L 190.167273 175.872 
L 190.167273 173.184 
L 190.167273 170.496 
L 190.167273 167.808 
L 190.167273 165.12 
L 190.167273 162.432 
L 190.167273 159.744 
L 191.069091 159.072 
L 194.676364 159.072 
L 198.283636 159.072 
L 201.890909 159.072 
L 205.498182 159.072 
L 209.105455 159.072 
L 212.712727 159.072 
L 216.32 159.072 
L 219.927273 159.072 
L 223.534545 159.072 
L 227.141818 159.072 
L 230.749091 159.072 
L 234.356364 159.072 
L 237.963636 159.072 
L 238.865455 159.744 
L 238.865455 162.432 
L 238.865455 165.12 
L 238.865455 167.808 
L 238.865455 170.496 
L 238.865455 173.184 
L 238.865455 175.872 
L 238.865455 178.56 
L 241.570909 180.576 
L 245.178182 180.576 
L 246.08 181.248 
L 246.08 183.936 
L 246.08 186.624 
L 246.08 189.312 
L 246.08 192 
L 246.08 194.688 
L 246.08 197.376 
L 246.08 200.064 
L 246.08 202.752 
L 246.08 205.44 
L 248.785455 207.456 
L 252.392727 207.456 
L 256 207.456 
L 259.607273 207.456 
L 263.214545 207.456 
L 265.92 205.44 
L 265.92 202.752 
L 265.92 200.064 
L 265.92 197.376 
L 266.821818 196.704 
L 270.429091 196.704 
L 274.036364 196.704 
L 277.643636 196.704 
L 280.349091 194.688 
L 280.349091 192 
L 280.349091 189.312 
L 280.349091 186.624 
L 280.349091 183.936 
L 280.349091 181.248 
L 280.349091 178.56 
L 280.349091 175.872 
L 280.349091 173.184 
L 280.349091 170.496 
L 280.349091 167.808 
L 280.349091 165.12 
L 280.349091 162.432 
L 280.349091 159.744 
L 280.349091 157.056 
L 280.349091 154.368 
L 280.349091 151.68 
L 280.349091 148.992 
L 280.349091 146.304 
L 280.349091 143.616 
L 280.349091 140.928 
L 280.349091 138.24 
L 280.349091 135.552 
L 280.349091 132.864 
L 280.349091 130.176 
L 280.349091 127.488 
L 280.349091 124.8 
L 280.349091 122.112 
L 280.349091 119.424 
L 280.349091 116.736 
L 280.349091 114.048 
L 280.349091 111.36 
L 280.349091 108.672 
L 280.349091 105.984 
L 280.349091 103.296 
L 280.349091 100.608 
L 280.349091 97.92 
L 280.349091 95.232 
L 280.349091 92.544 
L 280.349091 89.856 
L 280.349091 87.168 
L 280.349091 84.48 
L 280.349091 81.792 
L 280.349091 79.104 
L 280.349091 76.416 
L 280.349091 73.728 
L 280.349091 71.04 
L 280.349091 68.352 
L 280.349091 65.664 
L 280.349091 62.976 
L 280.349091 60.288 
L 280.349091 57.6 
L 280.349091 54.912 
L 280.349091 52.224 
L 280.349091 49.536 
L 280.349091 46.848 
L 280.349091 44.16 
L 280.349091 41.472 
L 279.808 41.472 
L 279.808 44.16 
L 279.808 46.848 
L 279.808 49.536 
L 279.808 52.224 
L 279.808 54.912 
L 279.808 57.6 
L 279.808 60.288 
L 279.808 62.976 
L 279.808 65.664 
L 279.808 68.352 
L 279.808 71.04 
L 279.808 73.728 
L 279.808 76.416 
L 279.808 79.104 
L 279.808 81.792 
L 279.808 84.48 
L 279.808 87.168 
L 279.808 89.856 
L 279.808 92.544 
L 279.808 95.232 
L 279.808 97.92 
L 279.808 100.608 
L 279.808 103.296 
L 279.808 105.984 
L 279.808 108.672 
L 279.808 111.36 
L 279.808 114.048 
L 279.808 116.736 
L 279.808 119.424 
L 279.808 122.112 
L 279.808 124.8 
L 279.808 127.488 
L 279.808 130.176 
L 279.808 132.864 
L 279.808 135.552 
L 279.808 138.24 
L 279.808 140.928 
L 279.808 143.616 
L 279.808 146.304 
L 279.808 148.992 
L 279.808 151.68 
L 279.808 154.368 
L 279.808 157.056 
L 279.808 159.744 
L 279.808 162.432 
L 279.808 165.12 
L 279.808 167.808 
L 279.808 170.496 
L 279.808 173.184 
L 279.808 175.872 
L 279.808 178.56 
L 279.808 181.248 
L 279.808 183.936 
L 279.808 186.624 
L 279.808 189.312 
L 279.808 192 
L 279.808 194.688 
L 277.643636 196.3008 
L 274.036364 196.3008 
L 270.429091 196.3008 
L 266.821818 196.3008 
L 265.378909 197.376 
L 265.378909 200.064 
L 265.378909 202.752 
L 265.378909 205.44 
L 263.214545 207.0528 
L 259.607273 207.0528 
L 256 207.0528 
L 252.392727 207.0528 
L 248.785455 207.0528 
L 246.621091 205.44 
L 246.621091 202.752 
L 246.621091 200.064 
L 246.621091 197.376 
L 246.621091 194.688 
L 246.621091 192 
L 246.621091 189.312 
L 246.621091 186.624 
L 246.621091 183.936 
L 246.621091 181.248 
L 245.178182 180.1728 
L 241.570909 180.1728 
L 239.406545 178.56 
L 239.406545 175.872 
L 239.406545 173.184 
L 239.406545 170.496 
L 239.406545 167.808 
L 239.406545 165.12 
L 239.406545 162.432 
L 239.406545 159.744 
L 237.963636 158.6688 
L 234.356364 158.6688 
L 230.749091 158.6688 
L 227.141818 158.6688 
L 223.534545 158.6688 
L 219.927273 158.6688 
L 216.32 158.6688 
L 212.712727 158.6688 
L 209.105455 158.6688 
L 205.498182 158.6688 
L 201.890909 158.6688 
L 198.283636 158.6688 
L 194.676364 158.6688 
L 191.069091 158.6688 
L 189.626182 159.744 
L 189.626182 162.432 
L 189.626182 165.12 
L 189.626182 167.808 
L 189.626182 170.496 
L 189.626182 173.184 
L 189.626182 175.872 
L 189.626182 178.56 
L 189.626182 181.248 
L 189.626182 183.936 
L 189.626182 186.624 
L 189.626182 189.312 
L 189.626182 192 
L 189.626182 194.688 
L 189.626182 197.376 
L 189.626182 200.064 
L 189.626182 202.752 
L 189.626182 205.44 
L 187.461818 207.0528 
L 183.854545 207.0528 
L 180.247273 207.0528 
L 176.64 207.0528 
L 173.032727 207.0528 
L 169.425455 207.0528 
L 165.818182 207.0528 
L 162.210909 207.0528 
L 158.603636 207.0528 
L 154.996364 207.0528 
L 151.389091 207.0528 
L 147.781818 207.0528 
L 144.174545 207.0528 
L 140.567273 207.0528 
L 136.96 207.0528 
L 133.352727 207.0528 
L 129.745455 207.0528 
L 126.138182 207.0528 
L 122.530909 207.0528 
L 118.923636 207.0528 
L 115.316364 207.0528 
L 111.709091 207.0528 
L 108.101818 207.0528 
L 104.494545 207.0528 
L 100.887273 207.0528 
L 97.28 207.0528 
L 93.672727 207.0528 
L 90.065455 207.0528 
L 86.458182 207.0528 
L 82.850909 207.0528 
L 79.243636 207.0528 
L 75.636364 207.0528 
L 72.029091 207.0528 
L 68.421818 207.0528 
L 64.814545 207.0528 
L 61.207273 207.0528 
L 57.6 207.0528 
L 57.6 207.456 
z
" clip-path="url(#p5c6618b957)" style="fill: #2db27d; fill-opacity: 0.5"/>
    <path d="M 61.207273 207.8592 
L 64.814545 207.8592 
L 68.421818 207.8592 
L 72.029091 207.8592 
L 75.636364 207.8592 
L 79.243636 207.8592 
L 82.850909 207.8592 
L 86.458182 207.8592 
L 90.065455 207.8592 
L 93.672727 207.8592 
L 97.28 207.8592 
L 100.887273 207.8592 
L 104.494545 207.8592 
L 108.101818 207.8592 
L 111.709091 207.8592 
L 115.316364 207.8592 
L 118.923636 207.8592 
L 122.530909 207.8592 
L 126.138182 207.8592 
L 129.745455 207.8592 
L 133.352727 207.8592 
L 136.96 207.8592 
L 140.567273 207.8592 
L 144.174545 207.8592 
L 147.781818 207.8592 
L 151.389091 207.8592 
L 154.996364 207.8592 
L 158.603636 207.8592 
L 162.210909 207.8592 
L 165.818182 207.8592 
L 169.425455 207.8592 
L 173.032727 207.8592 
L 176.64 207.8592 
L 180.247273 207.8592 
L 183.854545 207.8592 
L 187.461818 207.8592 
L 190.708364 205.44 
L 190.708364 202.752 
L 190.708364 200.064 
L 190.708364 197.376 
L 190.708364 194.688 
L 190.708364 192 
L 190.708364 189.312 
L 190.708364 186.624 
L 190.708364 183.936 
L 190.708364 181.248 
L 190.708364 178.56 
L 190.708364 175.872 
L 190.708364 173.184 
L 190.708364 170.496 
L 190.708364 167.808 
L 190.708364 165.12 
L 190.708364 162.432 
L 190.708364 159.744 
L 191.069091 159.4752 
L 194.676364 159.4752 
L 198.283636 159.4752 
L 201.890909 159.4752 
L 205.498182 159.4752 
L 209.105455 159.4752 
L 212.712727 159.4752 
L 216.32 159.4752 
L 219.927273 159.4752 
L 223.534545 159.4752 
L 227.141818 159.4752 
L 230.749091 159.4752 
L 234.356364 159.4752 
L 237.963636 159.4752 
L 238.324364 159.744 
L 238.324364 162.432 
L 238.324364 165.12 
L 238.324364 167.808 
L 238.324364 170.496 
L 238.324364 173.184 
L 238.324364 175.872 
L 238.324364 178.56 
L 241.570909 180.9792 
L 245.178182 180.9792 
L 245.538909 181.248 
L 245.538909 183.936 
L 245.538909 186.624 
L 245.538909 189.312 
L 245.538909 192 
L 245.538909 194.688 
L 245.538909 197.376 
L 245.538909 200.064 
L 245.538909 202.752 
L 245.538909 205.44 
L 248.785455 207.8592 
L 252.392727 207.8592 
L 256 207.8592 
L 259.607273 207.8592 
L 263.214545 207.8592 
L 266.461091 205.44 
L 266.461091 202.752 
L 266.461091 200.064 
L 266.461091 197.376 
L 266.821818 197.1072 
L 270.429091 197.1072 
L 274.036364 197.1072 
L 277.643636 197.1072 
L 280.890182 194.688 
L 280.890182 192 
L 280.890182 189.312 
L 280.890182 186.624 
L 280.890182 183.936 
L 280.890182 181.248 
L 280.890182 178.56 
L 280.890182 175.872 
L 280.890182 173.184 
L 280.890182 170.496 
L 280.890182 167.808 
L 280.890182 165.12 
L 280.890182 162.432 
L 280.890182 159.744 
L 280.890182 157.056 
L 280.890182 154.368 
L 280.890182 151.68 
L 280.890182 148.992 
L 280.890182 146.304 
L 280.890182 143.616 
L 280.890182 140.928 
L 280.890182 138.24 
L 280.890182 135.552 
L 280.890182 132.864 
L 280.890182 130.176 
L 280.890182 127.488 
L 280.890182 124.8 
L 280.890182 122.112 
L 280.890182 119.424 
L 280.890182 116.736 
L 280.890182 114.048 
L 280.890182 111.36 
L 280.890182 108.672 
L 280.890182 105.984 
L 280.890182 103.296 
L 280.890182 100.608 
L 280.890182 97.92 
L 280.890182 95.232 
L 280.890182 92.544 
L 280.890182 89.856 
L 280.890182 87.168 
L 280.890182 84.48 
L 280.890182 81.792 
L 280.890182 79.104 
L 280.890182 76.416 
L 280.890182 73.728 
L 280.890182 71.04 
L 280.890182 68.352 
L 280.890182 65.664 
L 280.890182 62.976 
L 280.890182 60.288 
L 280.890182 57.6 
L 280.890182 54.912 
L 280.890182 52.224 
L 280.890182 49.536 
L 280.890182 46.848 
L 280.890182 44.16 
L 280.890182 41.472 
L 280.349091 41.472 
L 280.349091 44.16 
L 280.349091 46.848 
L 280.349091 49.536 
L 280.349091 52.224 
L 280.349091 54.912 
L 280.349091 57.6 
L 280.349091 60.288 
L 280.349091 62.976 
L 280.349091 65.664 
L 280.349091 68.352 
L 280.349091 71.04 
L 280.349091 73.728 
L 280.349091 76.416 
L 280.349091 79.104 
L 280.349091 81.792 
L 280.349091 84.48 
L 280.349091 87.168 
L 280.349091 89.856 
L 280.349091 92.544 
L 280.349091 95.232 
L 280.349091 97.92 
L 280.349091 100.608 
L 280.349091 103.296 
L 280.349091 105.984 
L 280.349091 108.672 
L 280.349091 111.36 
L 280.349091 114.048 
L 280.349091 116.736 
L 280.349091 119.424 
L 280.349091 122.112 
L 280.349091 124.8 
L 280.349091 127.488 
L 280.349091 130.176 
L 280.349091 132.864 
L 280.349091 135.552 
L 280.349091 138.24 
L 280.349091 140.928 
L 280.349091 143.616 
L 280.349091 146.304 
L 280.349091 148.992 
L 280.349091 151.68 
L 280.349091 154.368 
L 280.349091 157.056 
L 280.349091 159.744 
L 280.349091 162.432 
L 280.349091 165.12 
L 280.349091 167.808 
L 280.349091 170.496 
L 280.349091 173.184 
L 280.349091 175.872 
L 280.349091 178.56 
L 280.349091 181.248 
L 280.349091 183.936 
L 280.349091 186.624 
L 280.349091 189.312 
L 280.349091 192 
L 280.349091 194.688 
L 277.643636 196.704 
L 274.036364 196.704 
L 270.429091 196.704 
L 266.821818 196.704 
L 265.92 197.376 
L 265.92 200.064 
L 265.92 202.752 
L 265.92 205.44 
L 263.214545 207.456 
L 259.607273 207.456 
L 256 207.456 
L 252.392727 207.456 
L 248.785455 207.456 
L 246.08 205.44 
L 246.08 202.752 
L 246.08 200.064 
L 246.08 197.376 
L 246.08 194.688 
L 246.08 192 
L 246.08 189.312 
L 246.08 186.624 
L 246.08 183.936 
L 246.08 181.248 
L 245.178182 180.576 
L 241.570909 180.576 
L 238.865455 178.56 
L 238.865455 175.872 
L 238.865455 173.184 
L 238.865455 170.496 
L 238.865455 167.808 
L 238.865455 165.12 
L 238.865455 162.432 
L 238.865455 159.744 
L 237.963636 159.072 
L 234.356364 159.072 
L 230.749091 159.072 
L 227.141818 159.072 
L 223.534545 159.072 
L 219.927273 159.072 
L 216.32 159.072 
L 212.712727 159.072 
L 209.105455 159.072 
L 205.498182 159.072 
L 201.890909 159.072 
L 198.283636 159.072 
L 194.676364 159.072 
L 191.069091 159.072 
L 190.167273 159.744 
L 190.167273 162.432 
L 190.167273 165.12 
L 190.167273 167.808 
L 190.167273 170.496 
L 190.167273 173.184 
L 190.167273 175.872 
L 190.167273 178.56 
L 190.167273 181.248 
L 190.167273 183.936 
L 190.167273 186.624 
L 190.167273 189.312 
L 190.167273 192 
L 190.167273 194.688 
L 190.167273 197.376 
L 190.167273 200.064 
L 190.167273 202.752 
L 190.167273 205.44 
L 187.461818 207.456 
L 183.854545 207.456 
L 180.247273 207.456 
L 176.64 207.456 
L 173.032727 207.456 
L 169.425455 207.456 
L 165.818182 207.456 
L 162.210909 207.456 
L 158.603636 207.456 
L 154.996364 207.456 
L 151.389091 207.456 
L 147.781818 207.456 
L 144.174545 207.456 
L 140.567273 207.456 
L 136.96 207.456 
L 133.352727 207.456 
L 129.745455 207.456 
L 126.138182 207.456 
L 122.530909 207.456 
L 118.923636 207.456 
L 115.316364 207.456 
L 111.709091 207.456 
L 108.101818 207.456 
L 104.494545 207.456 
L 100.887273 207.456 
L 97.28 207.456 
L 93.672727 207.456 
L 90.065455 207.456 
L 86.458182 207.456 
L 82.850909 207.456 
L 79.243636 207.456 
L 75.636364 207.456 
L 72.029091 207.456 
L 68.421818 207.456 
L 64.814545 207.456 
L 61.207273 207.456 
L 57.6 207.456 
L 57.6 207.8592 
z
" clip-path="url(#p5c6618b957)" style="fill: #73d056; fill-opacity: 0.5"/>
    <path d="M 61.207273 307.584 
L 64.814545 307.584 
L 68.421818 307.584 
L 72.029091 307.584 
L 75.636364 307.584 
L 79.243636 307.584 
L 82.850909 307.584 
L 86.458182 307.584 
L 90.065455 307.584 
L 93.672727 307.584 
L 97.28 307.584 
L 100.887273 307.584 
L 104.494545 307.584 
L 108.101818 307.584 
L 111.709091 307.584 
L 115.316364 307.584 
L 118.923636 307.584 
L 122.530909 307.584 
L 126.138182 307.584 
L 129.745455 307.584 
L 133.352727 307.584 
L 136.96 307.584 
L 140.567273 307.584 
L 144.174545 307.584 
L 147.781818 307.584 
L 151.389091 307.584 
L 154.996364 307.584 
L 158.603636 307.584 
L 162.210909 307.584 
L 165.818182 307.584 
L 169.425455 307.584 
L 173.032727 307.584 
L 176.64 307.584 
L 180.247273 307.584 
L 183.854545 307.584 
L 187.461818 307.584 
L 191.069091 307.584 
L 194.676364 307.584 
L 198.283636 307.584 
L 201.890909 307.584 
L 205.498182 307.584 
L 209.105455 307.584 
L 212.712727 307.584 
L 216.32 307.584 
L 219.927273 307.584 
L 223.534545 307.584 
L 227.141818 307.584 
L 230.749091 307.584 
L 234.356364 307.584 
L 237.963636 307.584 
L 241.570909 307.584 
L 245.178182 307.584 
L 248.785455 307.584 
L 252.392727 307.584 
L 256 307.584 
L 259.607273 307.584 
L 263.214545 307.584 
L 266.821818 307.584 
L 270.429091 307.584 
L 274.036364 307.584 
L 277.643636 307.584 
L 281.250909 307.584 
L 284.858182 307.584 
L 288.465455 307.584 
L 292.072727 307.584 
L 295.68 307.584 
L 299.287273 307.584 
L 302.894545 307.584 
L 306.501818 307.584 
L 310.109091 307.584 
L 313.716364 307.584 
L 317.323636 307.584 
L 320.930909 307.584 
L 324.538182 307.584 
L 328.145455 307.584 
L 331.752727 307.584 
L 335.36 307.584 
L 338.967273 307.584 
L 342.574545 307.584 
L 346.181818 307.584 
L 349.789091 307.584 
L 353.396364 307.584 
L 357.003636 307.584 
L 360.610909 307.584 
L 364.218182 307.584 
L 367.825455 307.584 
L 371.432727 307.584 
L 375.04 307.584 
L 378.647273 307.584 
L 382.254545 307.584 
L 385.861818 307.584 
L 389.469091 307.584 
L 393.076364 307.584 
L 396.683636 307.584 
L 400.290909 307.584 
L 403.898182 307.584 
L 407.505455 307.584 
L 411.112727 307.584 
L 414.72 307.584 
L 414.72 304.896 
L 414.72 302.208 
L 414.72 299.52 
L 414.72 296.832 
L 414.72 294.144 
L 414.72 291.456 
L 414.72 288.768 
L 414.72 286.08 
L 414.72 283.392 
L 414.72 280.704 
L 414.72 278.016 
L 414.72 275.328 
L 414.72 272.64 
L 414.72 269.952 
L 414.72 267.264 
L 414.72 264.576 
L 414.72 261.888 
L 414.72 259.2 
L 414.72 256.512 
L 414.72 253.824 
L 414.72 251.136 
L 414.72 248.448 
L 414.72 245.76 
L 414.72 243.072 
L 414.72 240.384 
L 414.72 237.696 
L 414.72 235.008 
L 414.72 232.32 
L 414.72 229.632 
L 414.72 226.944 
L 414.72 224.256 
L 414.72 221.568 
L 414.72 218.88 
L 414.72 216.192 
L 414.72 213.504 
L 414.72 210.816 
L 414.72 208.128 
L 414.72 205.44 
L 414.72 202.752 
L 414.72 200.064 
L 414.72 197.376 
L 414.72 194.688 
L 414.72 192 
L 414.72 189.312 
L 414.72 186.624 
L 414.72 183.936 
L 414.72 181.248 
L 414.72 178.56 
L 414.72 175.872 
L 414.72 173.184 
L 414.72 170.496 
L 414.72 167.808 
L 414.72 165.12 
L 414.72 162.432 
L 414.72 159.744 
L 414.72 157.056 
L 414.72 154.368 
L 414.72 151.68 
L 414.72 148.992 
L 414.72 146.304 
L 414.72 143.616 
L 414.72 140.928 
L 414.72 138.24 
L 414.72 135.552 
L 414.72 132.864 
L 414.72 130.176 
L 414.72 127.488 
L 414.72 124.8 
L 414.72 122.112 
L 414.72 119.424 
L 414.72 116.736 
L 414.72 114.048 
L 414.72 111.36 
L 414.72 108.672 
L 414.72 105.984 
L 414.72 103.296 
L 414.72 100.608 
L 414.72 97.92 
L 414.72 95.232 
L 414.72 92.544 
L 414.72 89.856 
L 414.72 87.168 
L 414.72 84.48 
L 414.72 81.792 
L 414.72 79.104 
L 414.72 76.416 
L 414.72 73.728 
L 414.72 71.04 
L 414.72 68.352 
L 414.72 65.664 
L 414.72 62.976 
L 414.72 60.288 
L 414.72 57.6 
L 414.72 54.912 
L 414.72 52.224 
L 414.72 49.536 
L 414.72 46.848 
L 414.72 44.16 
L 414.72 41.472 
L 411.112727 41.472 
L 407.505455 41.472 
L 403.898182 41.472 
L 400.290909 41.472 
L 396.683636 41.472 
L 393.076364 41.472 
L 389.469091 41.472 
L 385.861818 41.472 
L 382.254545 41.472 
L 378.647273 41.472 
L 375.04 41.472 
L 371.432727 41.472 
L 367.825455 41.472 
L 364.218182 41.472 
L 360.610909 41.472 
L 357.003636 41.472 
L 353.396364 41.472 
L 349.789091 41.472 
L 346.181818 41.472 
L 342.574545 41.472 
L 338.967273 41.472 
L 335.36 41.472 
L 331.752727 41.472 
L 328.145455 41.472 
L 324.538182 41.472 
L 320.930909 41.472 
L 317.323636 41.472 
L 313.716364 41.472 
L 310.109091 41.472 
L 306.501818 41.472 
L 302.894545 41.472 
L 299.287273 41.472 
L 295.68 41.472 
L 292.072727 41.472 
L 288.465455 41.472 
L 284.858182 41.472 
L 281.250909 41.472 
L 280.890182 41.472 
L 280.890182 44.16 
L 280.890182 46.848 
L 280.890182 49.536 
L 280.890182 52.224 
L 280.890182 54.912 
L 280.890182 57.6 
L 280.890182 60.288 
L 280.890182 62.976 
L 280.890182 65.664 
L 280.890182 68.352 
L 280.890182 71.04 
L 280.890182 73.728 
L 280.890182 76.416 
L 280.890182 79.104 
L 280.890182 81.792 
L 280.890182 84.48 
L 280.890182 87.168 
L 280.890182 89.856 
L 280.890182 92.544 
L 280.890182 95.232 
L 280.890182 97.92 
L 280.890182 100.608 
L 280.890182 103.296 
L 280.890182 105.984 
L 280.890182 108.672 
L 280.890182 111.36 
L 280.890182 114.048 
L 280.890182 116.736 
L 280.890182 119.424 
L 280.890182 122.112 
L 280.890182 124.8 
L 280.890182 127.488 
L 280.890182 130.176 
L 280.890182 132.864 
L 280.890182 135.552 
L 280.890182 138.24 
L 280.890182 140.928 
L 280.890182 143.616 
L 280.890182 146.304 
L 280.890182 148.992 
L 280.890182 151.68 
L 280.890182 154.368 
L 280.890182 157.056 
L 280.890182 159.744 
L 280.890182 162.432 
L 280.890182 165.12 
L 280.890182 167.808 
L 280.890182 170.496 
L 280.890182 173.184 
L 280.890182 175.872 
L 280.890182 178.56 
L 280.890182 181.248 
L 280.890182 183.936 
L 280.890182 186.624 
L 280.890182 189.312 
L 280.890182 192 
L 280.890182 194.688 
L 277.643636 197.1072 
L 274.036364 197.1072 
L 270.429091 197.1072 
L 266.821818 197.1072 
L 266.461091 197.376 
L 266.461091 200.064 
L 266.461091 202.752 
L 266.461091 205.44 
L 263.214545 207.8592 
L 259.607273 207.8592 
L 256 207.8592 
L 252.392727 207.8592 
L 248.785455 207.8592 
L 245.538909 205.44 
L 245.538909 202.752 
L 245.538909 200.064 
L 245.538909 197.376 
L 245.538909 194.688 
L 245.538909 192 
L 245.538909 189.312 
L 245.538909 186.624 
L 245.538909 183.936 
L 245.538909 181.248 
L 245.178182 180.9792 
L 241.570909 180.9792 
L 238.324364 178.56 
L 238.324364 175.872 
L 238.324364 173.184 
L 238.324364 170.496 
L 238.324364 167.808 
L 238.324364 165.12 
L 238.324364 162.432 
L 238.324364 159.744 
L 237.963636 159.4752 
L 234.356364 159.4752 
L 230.749091 159.4752 
L 227.141818 159.4752 
L 223.534545 159.4752 
L 219.927273 159.4752 
L 216.32 159.4752 
L 212.712727 159.4752 
L 209.105455 159.4752 
L 205.498182 159.4752 
L 201.890909 159.4752 
L 198.283636 159.4752 
L 194.676364 159.4752 
L 191.069091 159.4752 
L 190.708364 159.744 
L 190.708364 162.432 
L 190.708364 165.12 
L 190.708364 167.808 
L 190.708364 170.496 
L 190.708364 173.184 
L 190.708364 175.872 
L 190.708364 178.56 
L 190.708364 181.248 
L 190.708364 183.936 
L 190.708364 186.624 
L 190.708364 189.312 
L 190.708364 192 
L 190.708364 194.688 
L 190.708364 197.376 
L 190.708364 200.064 
L 190.708364 202.752 
L 190.708364 205.44 
L 187.461818 207.8592 
L 183.854545 207.8592 
L 180.247273 207.8592 
L 176.64 207.8592 
L 173.032727 207.8592 
L 169.425455 207.8592 
L 165.818182 207.8592 
L 162.210909 207.8592 
L 158.603636 207.8592 
L 154.996364 207.8592 
L 151.389091 207.8592 
L 147.781818 207.8592 
L 144.174545 207.8592 
L 140.567273 207.8592 
L 136.96 207.8592 
L 133.352727 207.8592 
L 129.745455 207.8592 
L 126.138182 207.8592 
L 122.530909 207.8592 
L 118.923636 207.8592 
L 115.316364 207.8592 
L 111.709091 207.8592 
L 108.101818 207.8592 
L 104.494545 207.8592 
L 100.887273 207.8592 
L 97.28 207.8592 
L 93.672727 207.8592 
L 90.065455 207.8592 
L 86.458182 207.8592 
L 82.850909 207.8592 
L 79.243636 207.8592 
L 75.636364 207.8592 
L 72.029091 207.8592 
L 68.421818 207.8592 
L 64.814545 207.8592 
L 61.207273 207.8592 
L 57.6 207.8592 
L 57.6 208.128 
L 57.6 210.816 
L 57.6 213.504 
L 57.6 216.192 
L 57.6 218.88 
L 57.6 221.568 
L 57.6 224.256 
L 57.6 226.944 
L 57.6 229.632 
L 57.6 232.32 
L 57.6 235.008 
L 57.6 237.696 
L 57.6 240.384 
L 57.6 243.072 
L 57.6 245.76 
L 57.6 248.448 
L 57.6 251.136 
L 57.6 253.824 
L 57.6 256.512 
L 57.6 259.2 
L 57.6 261.888 
L 57.6 264.576 
L 57.6 267.264 
L 57.6 269.952 
L 57.6 272.64 
L 57.6 275.328 
L 57.6 278.016 
L 57.6 280.704 
L 57.6 283.392 
L 57.6 286.08 
L 57.6 288.768 
L 57.6 291.456 
L 57.6 294.144 
L 57.6 296.832 
L 57.6 299.52 
L 57.6 302.208 
L 57.6 304.896 
L 57.6 307.584 
z
" clip-path="url(#p5c6618b957)" style="fill: #d0e11c; fill-opacity: 0.5"/>
   </g>
   <g id="PathCollection_1">
    <defs>
     <path id="C0_0_9d8d2f3a61" d="M 0 3 
C 0.795609 3 1.55874 2.683901 2.12132 2.12132 
C 2.683901 1.55874 3 0.795609 3 -0 
C 3 -0.795609 2.683901 -1.55874 2.12132 -2.12132 
C 1.55874 -2.683901 0.795609 -3 0 -3 
C -0.795609 -3 -1.55874 -2.683901 -2.12132 -2.12132 
C -2.683901 -1.55874 -3 -0.795609 -3 0 
C -3 0.795609 -2.683901 1.55874 -2.12132 2.12132 
C -1.55874 2.683901 -0.795609 3 0 3 
z
"/>
    </defs>
    <g clip-path="url(#p5c6618b957)">
     <use xlink:href="#C0_0_9d8d2f3a61" x="247.87274" y="156.920492" style="fill: #440154; stroke: #000000"/>
    </g>
    <g clip-path="url(#p5c6618b957)">
     <use xlink:href="#C0_0_9d8d2f3a61" x="242.235294" y="229.618439" style="fill: #fde725; stroke: #000000"/>
    </g>
    <g clip-path="url(#p5c6618b957)">
     <use xlink:href="#C0_0_9d8d2f3a61" x="251.343939" y="151.069469" style="fill: #440154; stroke: #000000"/>
    </g>
    <g clip-path="url(#p5c6618b957)">
     <use xlink:href="#C0_0_9d8d2f3a61" x="239.214004" y="180.742448" style="fill: #fde725; stroke: #000000"/>
    </g>
    <g clip-path="url(#p5c6618b957)">
     <use xlink:href="#C0_0_9d8d2f3a61" x="305.62355" y="150.209854" style="fill: #fde725; stroke: #000000"/>
    </g>
    <g clip-path="url(#p5c6618b957)">
     <use xlink:href="#C0_0_9d8d2f3a61" x="146.67466" y="168.350268" style="fill: #440154; stroke: #000000"/>
    </g>
    <g clip-path="url(#p5c6618b957)">
     <use xlink:href="#C0_0_9d8d2f3a61" x="232.818302" y="220.448589" style="fill: #fde725; stroke: #000000"/>
    </g>
    <g clip-path="url(#p5c6618b957)">
     <use xlink:href="#C0_0_9d8d2f3a61" x="234.645478" y="210.827511" style="fill: #fde725; stroke: #000000"/>
    </g>
    <g clip-path="url(#p5c6618b957)">
     <use xlink:href="#C0_0_9d8d2f3a61" x="232.161324" y="219.385057" style="fill: #fde725; stroke: #000000"/>
    </g>
    <g clip-path="url(#p5c6618b957)">
     <use xlink:href="#C0_0_9d8d2f3a61" x="152.540492" y="179.935192" style="fill: #440154; stroke: #000000"/>
    </g>
    <g clip-path="url(#p5c6618b957)">
     <use xlink:href="#C0_0_9d8d2f3a61" x="264.462803" y="242.834173" style="fill: #fde725; stroke: #000000"/>
    </g>
    <g clip-path="url(#p5c6618b957)">
     <use xlink:href="#C0_0_9d8d2f3a61" x="312.563873" y="223.133738" style="fill: #fde725; stroke: #000000"/>
    </g>
    <g clip-path="url(#p5c6618b957)">
     <use xlink:href="#C0_0_9d8d2f3a61" x="259.385462" y="125.960142" style="fill: #440154; stroke: #000000"/>
    </g>
    <g clip-path="url(#p5c6618b957)">
     <use xlink:href="#C0_0_9d8d2f3a61" x="134.261345" y="150.539031" style="fill: #440154; stroke: #000000"/>
    </g>
    <g clip-path="url(#p5c6618b957)">
     <use xlink:href="#C0_0_9d8d2f3a61" x="328.365425" y="207.505195" style="fill: #fde725; stroke: #000000"/>
    </g>
    <g clip-path="url(#p5c6618b957)">
     <use xlink:href="#C0_0_9d8d2f3a61" x="152.744703" y="152.625608" style="fill: #440154; stroke: #000000"/>
    </g>
    <g clip-path="url(#p5c6618b957)">
     <use xlink:href="#C0_0_9d8d2f3a61" x="157.062583" y="140.619335" style="fill: #440154; stroke: #000000"/>
    </g>
    <g clip-path="url(#p5c6618b957)">
     <use xlink:href="#C0_0_9d8d2f3a61" x="150.522154" y="141.034931" style="fill: #440154; stroke: #000000"/>
    </g>
    <g clip-path="url(#p5c6618b957)">
     <use xlink:href="#C0_0_9d8d2f3a61" x="171.032405" y="127.574892" style="fill: #440154; stroke: #000000"/>
    </g>
    <g clip-path="url(#p5c6618b957)">
     <use xlink:href="#C0_0_9d8d2f3a61" x="220.251955" y="120.208269" style="fill: #440154; stroke: #000000"/>
    </g>
    <g clip-path="url(#p5c6618b957)">
     <use xlink:href="#C0_0_9d8d2f3a61" x="213.601436" y="194.73185" style="fill: #fde725; stroke: #000000"/>
    </g>
    <g clip-path="url(#p5c6618b957)">
     <use xlink:href="#C0_0_9d8d2f3a61" x="224.328779" y="129.79398" style="fill: #440154; stroke: #000000"/>
    </g>
    <g clip-path="url(#p5c6618b957)">
     <use xlink:href="#C0_0_9d8d2f3a61" x="306.405388" y="183.294003" style="fill: #fde725; stroke: #000000"/>
    </g>
    <g clip-path="url(#p5c6618b957)">
     <use xlink:href="#C0_0_9d8d2f3a61" x="233.967867" y="111.186672" style="fill: #440154; stroke: #000000"/>
    </g>
    <g clip-path="url(#p5c6618b957)">
     <use xlink:href="#C0_0_9d8d2f3a61" x="252.380835" y="224.110828" style="fill: #fde725; stroke: #000000"/>
    </g>
    <g clip-path="url(#p5c6618b957)">
     <use xlink:href="#C0_0_9d8d2f3a61" x="135.291239" y="161.992376" style="fill: #440154; stroke: #000000"/>
    </g>
    <g clip-path="url(#p5c6618b957)">
     <use xlink:href="#C0_0_9d8d2f3a61" x="175.74705" y="154.535545" style="fill: #440154; stroke: #000000"/>
    </g>
    <g clip-path="url(#p5c6618b957)">
     <use xlink:href="#C0_0_9d8d2f3a61" x="236.334216" y="135.140773" style="fill: #440154; stroke: #000000"/>
    </g>
    <g clip-path="url(#p5c6618b957)">
     <use xlink:href="#C0_0_9d8d2f3a61" x="321.922036" y="146.84044" style="fill: #fde725; stroke: #000000"/>
    </g>
    <g clip-path="url(#p5c6618b957)">
     <use xlink:href="#C0_0_9d8d2f3a61" x="265.182779" y="160.420501" style="fill: #440154; stroke: #000000"/>
    </g>
    <g clip-path="url(#p5c6618b957)">
     <use xlink:href="#C0_0_9d8d2f3a61" x="190.88536" y="183.903886" style="fill: #fde725; stroke: #000000"/>
    </g>
    <g clip-path="url(#p5c6618b957)">
     <use xlink:href="#C0_0_9d8d2f3a61" x="127.60348" y="192.035918" style="fill: #440154; stroke: #000000"/>
    </g>
    <g clip-path="url(#p5c6618b957)">
     <use xlink:href="#C0_0_9d8d2f3a61" x="323.011395" y="201.889709" style="fill: #fde725; stroke: #000000"/>
    </g>
    <g clip-path="url(#p5c6618b957)">
     <use xlink:href="#C0_0_9d8d2f3a61" x="274.773364" y="180.287735" style="fill: #440154; stroke: #000000"/>
    </g>
    <g clip-path="url(#p5c6618b957)">
     <use xlink:href="#C0_0_9d8d2f3a61" x="179.487263" y="106.221827" style="fill: #440154; stroke: #000000"/>
    </g>
    <g clip-path="url(#p5c6618b957)">
     <use xlink:href="#C0_0_9d8d2f3a61" x="273.025722" y="201.690237" style="fill: #fde725; stroke: #000000"/>
    </g>
    <g clip-path="url(#p5c6618b957)">
     <use xlink:href="#C0_0_9d8d2f3a61" x="223.147961" y="158.374135" style="fill: #440154; stroke: #000000"/>
    </g>
    <g clip-path="url(#p5c6618b957)">
     <use xlink:href="#C0_0_9d8d2f3a61" x="226.629636" y="190.212609" style="fill: #fde725; stroke: #000000"/>
    </g>
    <g clip-path="url(#p5c6618b957)">
     <use xlink:href="#C0_0_9d8d2f3a61" x="332.160399" y="197.645067" style="fill: #fde725; stroke: #000000"/>
    </g>
    <g clip-path="url(#p5c6618b957)">
     <use xlink:href="#C0_0_9d8d2f3a61" x="208.106569" y="206.657375" style="fill: #fde725; stroke: #000000"/>
    </g>
    <g clip-path="url(#p5c6618b957)">
     <use xlink:href="#C0_0_9d8d2f3a61" x="156.595477" y="155.186086" style="fill: #440154; stroke: #000000"/>
    </g>
    <g clip-path="url(#p5c6618b957)">
     <use xlink:href="#C0_0_9d8d2f3a61" x="212.642019" y="168.880027" style="fill: #fde725; stroke: #000000"/>
    </g>
    <g clip-path="url(#p5c6618b957)">
     <use xlink:href="#C0_0_9d8d2f3a61" x="174.173404" y="115.66359" style="fill: #440154; stroke: #000000"/>
    </g>
    <g clip-path="url(#p5c6618b957)">
     <use xlink:href="#C0_0_9d8d2f3a61" x="319.321868" y="208.372245" style="fill: #fde725; stroke: #000000"/>
    </g>
    <g clip-path="url(#p5c6618b957)">
     <use xlink:href="#C0_0_9d8d2f3a61" x="168.74678" y="148.224735" style="fill: #440154; stroke: #000000"/>
    </g>
    <g clip-path="url(#p5c6618b957)">
     <use xlink:href="#C0_0_9d8d2f3a61" x="149.484793" y="165.360312" style="fill: #440154; stroke: #000000"/>
    </g>
    <g clip-path="url(#p5c6618b957)">
     <use xlink:href="#C0_0_9d8d2f3a61" x="271.248766" y="215.28417" style="fill: #fde725; stroke: #000000"/>
    </g>
    <g clip-path="url(#p5c6618b957)">
     <use xlink:href="#C0_0_9d8d2f3a61" x="205.422459" y="167.669083" style="fill: #fde725; stroke: #000000"/>
    </g>
    <g clip-path="url(#p5c6618b957)">
     <use xlink:href="#C0_0_9d8d2f3a61" x="158.336148" y="151.52106" style="fill: #440154; stroke: #000000"/>
    </g>
    <g clip-path="url(#p5c6618b957)">
     <use xlink:href="#C0_0_9d8d2f3a61" x="139.13255" y="158.244076" style="fill: #440154; stroke: #000000"/>
    </g>
    <g clip-path="url(#p5c6618b957)">
     <use xlink:href="#C0_0_9d8d2f3a61" x="331.091533" y="198.116532" style="fill: #fde725; stroke: #000000"/>
    </g>
    <g clip-path="url(#p5c6618b957)">
     <use xlink:href="#C0_0_9d8d2f3a61" x="257.743725" y="154.726514" style="fill: #440154; stroke: #000000"/>
    </g>
    <g clip-path="url(#p5c6618b957)">
     <use xlink:href="#C0_0_9d8d2f3a61" x="252.599817" y="157.581577" style="fill: #440154; stroke: #000000"/>
    </g>
    <g clip-path="url(#p5c6618b957)">
     <use xlink:href="#C0_0_9d8d2f3a61" x="262.420687" y="196.926825" style="fill: #440154; stroke: #000000"/>
    </g>
    <g clip-path="url(#p5c6618b957)">
     <use xlink:href="#C0_0_9d8d2f3a61" x="261.053807" y="149.426752" style="fill: #440154; stroke: #000000"/>
    </g>
    <g clip-path="url(#p5c6618b957)">
     <use xlink:href="#C0_0_9d8d2f3a61" x="191.27521" y="131.14203" style="fill: #440154; stroke: #000000"/>
    </g>
    <g clip-path="url(#p5c6618b957)">
     <use xlink:href="#C0_0_9d8d2f3a61" x="272.567518" y="214.795922" style="fill: #fde725; stroke: #000000"/>
    </g>
    <g clip-path="url(#p5c6618b957)">
     <use xlink:href="#C0_0_9d8d2f3a61" x="244.801741" y="226.279769" style="fill: #fde725; stroke: #000000"/>
    </g>
    <g clip-path="url(#p5c6618b957)">
     <use xlink:href="#C0_0_9d8d2f3a61" x="223.104065" y="221.048393" style="fill: #fde725; stroke: #000000"/>
    </g>
    <g clip-path="url(#p5c6618b957)">
     <use xlink:href="#C0_0_9d8d2f3a61" x="273.62526" y="230.144979" style="fill: #fde725; stroke: #000000"/>
    </g>
    <g clip-path="url(#p5c6618b957)">
     <use xlink:href="#C0_0_9d8d2f3a61" x="254.661142" y="204.433778" style="fill: #440154; stroke: #000000"/>
    </g>
    <g clip-path="url(#p5c6618b957)">
     <use xlink:href="#C0_0_9d8d2f3a61" x="267.98646" y="224.294793" style="fill: #fde725; stroke: #000000"/>
    </g>
    <g clip-path="url(#p5c6618b957)">
     <use xlink:href="#C0_0_9d8d2f3a61" x="214.027023" y="160.089778" style="fill: #fde725; stroke: #000000"/>
    </g>
    <g clip-path="url(#p5c6618b957)">
     <use xlink:href="#C0_0_9d8d2f3a61" x="158.857288" y="168.71957" style="fill: #440154; stroke: #000000"/>
    </g>
    <g clip-path="url(#p5c6618b957)">
     <use xlink:href="#C0_0_9d8d2f3a61" x="262.509551" y="189.879073" style="fill: #440154; stroke: #000000"/>
    </g>
    <g clip-path="url(#p5c6618b957)">
     <use xlink:href="#C0_0_9d8d2f3a61" x="253.737594" y="214.486686" style="fill: #fde725; stroke: #000000"/>
    </g>
    <g clip-path="url(#p5c6618b957)">
     <use xlink:href="#C0_0_9d8d2f3a61" x="298.414157" y="201.969974" style="fill: #fde725; stroke: #000000"/>
    </g>
    <g clip-path="url(#p5c6618b957)">
     <use xlink:href="#C0_0_9d8d2f3a61" x="305.269186" y="207.175068" style="fill: #fde725; stroke: #000000"/>
    </g>
    <g clip-path="url(#p5c6618b957)">
     <use xlink:href="#C0_0_9d8d2f3a61" x="239.643316" y="213.454127" style="fill: #fde725; stroke: #000000"/>
    </g>
    <g clip-path="url(#p5c6618b957)">
     <use xlink:href="#C0_0_9d8d2f3a61" x="317.915494" y="159.123046" style="fill: #fde725; stroke: #000000"/>
    </g>
    <g clip-path="url(#p5c6618b957)">
     <use xlink:href="#C0_0_9d8d2f3a61" x="236.838842" y="226.718633" style="fill: #fde725; stroke: #000000"/>
    </g>
    <g clip-path="url(#p5c6618b957)">
     <use xlink:href="#C0_0_9d8d2f3a61" x="192.316414" y="130.847086" style="fill: #440154; stroke: #000000"/>
    </g>
    <g clip-path="url(#p5c6618b957)">
     <use xlink:href="#C0_0_9d8d2f3a61" x="189.058566" y="115.477982" style="fill: #440154; stroke: #000000"/>
    </g>
    <g clip-path="url(#p5c6618b957)">
     <use xlink:href="#C0_0_9d8d2f3a61" x="333.432935" y="197.233328" style="fill: #fde725; stroke: #000000"/>
    </g>
    <g clip-path="url(#p5c6618b957)">
     <use xlink:href="#C0_0_9d8d2f3a61" x="143.495763" y="166.216037" style="fill: #440154; stroke: #000000"/>
    </g>
    <g clip-path="url(#p5c6618b957)">
     <use xlink:href="#C0_0_9d8d2f3a61" x="142.067842" y="205.077254" style="fill: #440154; stroke: #000000"/>
    </g>
    <g clip-path="url(#p5c6618b957)">
     <use xlink:href="#C0_0_9d8d2f3a61" x="149.657148" y="180.662314" style="fill: #440154; stroke: #000000"/>
    </g>
    <g clip-path="url(#p5c6618b957)">
     <use xlink:href="#C0_0_9d8d2f3a61" x="214.814367" y="111.105518" style="fill: #440154; stroke: #000000"/>
    </g>
    <g clip-path="url(#p5c6618b957)">
     <use xlink:href="#C0_0_9d8d2f3a61" x="266.225076" y="229.611598" style="fill: #fde725; stroke: #000000"/>
    </g>
    <g clip-path="url(#p5c6618b957)">
     <use xlink:href="#C0_0_9d8d2f3a61" x="287.431825" y="197.879329" style="fill: #fde725; stroke: #000000"/>
    </g>
    <g clip-path="url(#p5c6618b957)">
     <use xlink:href="#C0_0_9d8d2f3a61" x="320.84207" y="205.052534" style="fill: #fde725; stroke: #000000"/>
    </g>
    <g clip-path="url(#p5c6618b957)">
     <use xlink:href="#C0_0_9d8d2f3a61" x="217.183899" y="145.607672" style="fill: #440154; stroke: #000000"/>
    </g>
    <g clip-path="url(#p5c6618b957)">
     <use xlink:href="#C0_0_9d8d2f3a61" x="180.158041" y="132.513037" style="fill: #440154; stroke: #000000"/>
    </g>
    <g clip-path="url(#p5c6618b957)">
     <use xlink:href="#C0_0_9d8d2f3a61" x="217.275121" y="219.685817" style="fill: #fde725; stroke: #000000"/>
    </g>
    <g clip-path="url(#p5c6618b957)">
     <use xlink:href="#C0_0_9d8d2f3a61" x="274.303535" y="178.849247" style="fill: #440154; stroke: #000000"/>
    </g>
    <g clip-path="url(#p5c6618b957)">
     <use xlink:href="#C0_0_9d8d2f3a61" x="208.700753" y="202.583843" style="fill: #fde725; stroke: #000000"/>
    </g>
    <g clip-path="url(#p5c6618b957)">
     <use xlink:href="#C0_0_9d8d2f3a61" x="170.651066" y="124.642738" style="fill: #440154; stroke: #000000"/>
    </g>
    <g clip-path="url(#p5c6618b957)">
     <use xlink:href="#C0_0_9d8d2f3a61" x="223.676168" y="177.431413" style="fill: #fde725; stroke: #000000"/>
    </g>
    <g clip-path="url(#p5c6618b957)">
     <use xlink:href="#C0_0_9d8d2f3a61" x="248.114108" y="174.005146" style="fill: #440154; stroke: #000000"/>
    </g>
    <g clip-path="url(#p5c6618b957)">
     <use xlink:href="#C0_0_9d8d2f3a61" x="328.475613" y="209.66938" style="fill: #fde725; stroke: #000000"/>
    </g>
    <g clip-path="url(#p5c6618b957)">
     <use xlink:href="#C0_0_9d8d2f3a61" x="252.216062" y="214.48549" style="fill: #fde725; stroke: #000000"/>
    </g>
    <g clip-path="url(#p5c6618b957)">
     <use xlink:href="#C0_0_9d8d2f3a61" x="319.856645" y="185.245157" style="fill: #fde725; stroke: #000000"/>
    </g>
    <g clip-path="url(#p5c6618b957)">
     <use xlink:href="#C0_0_9d8d2f3a61" x="260.000922" y="152.319396" style="fill: #440154; stroke: #000000"/>
    </g>
    <g clip-path="url(#p5c6618b957)">
     <use xlink:href="#C0_0_9d8d2f3a61" x="122.949063" y="197.055864" style="fill: #440154; stroke: #000000"/>
    </g>
    <g clip-path="url(#p5c6618b957)">
     <use xlink:href="#C0_0_9d8d2f3a61" x="327.25573" y="225.745389" style="fill: #fde725; stroke: #000000"/>
    </g>
    <g clip-path="url(#p5c6618b957)">
     <use xlink:href="#C0_0_9d8d2f3a61" x="252.923711" y="154.734306" style="fill: #440154; stroke: #000000"/>
    </g>
    <g clip-path="url(#p5c6618b957)">
     <use xlink:href="#C0_0_9d8d2f3a61" x="196.313008" y="128.891673" style="fill: #440154; stroke: #000000"/>
    </g>
    <g clip-path="url(#p5c6618b957)">
     <use xlink:href="#C0_0_9d8d2f3a61" x="234.126313" y="212.05897" style="fill: #fde725; stroke: #000000"/>
    </g>
    <g clip-path="url(#p5c6618b957)">
     <use xlink:href="#C0_0_9d8d2f3a61" x="228.89668" y="205.994788" style="fill: #fde725; stroke: #000000"/>
    </g>
    <g clip-path="url(#p5c6618b957)">
     <use xlink:href="#C0_0_9d8d2f3a61" x="321.971505" y="187.633683" style="fill: #fde725; stroke: #000000"/>
    </g>
    <g clip-path="url(#p5c6618b957)">
     <use xlink:href="#C0_0_9d8d2f3a61" x="262.464099" y="165.199855" style="fill: #440154; stroke: #000000"/>
    </g>
    <g clip-path="url(#p5c6618b957)">
     <use xlink:href="#C0_0_9d8d2f3a61" x="249.402532" y="203.978706" style="fill: #440154; stroke: #000000"/>
    </g>
    <g clip-path="url(#p5c6618b957)">
     <use xlink:href="#C0_0_9d8d2f3a61" x="129.496684" y="166.777979" style="fill: #440154; stroke: #000000"/>
    </g>
    <g clip-path="url(#p5c6618b957)">
     <use xlink:href="#C0_0_9d8d2f3a61" x="308.952764" y="203.739961" style="fill: #fde725; stroke: #000000"/>
    </g>
    <g clip-path="url(#p5c6618b957)">
     <use xlink:href="#C0_0_9d8d2f3a61" x="314.594603" y="201.838741" style="fill: #fde725; stroke: #000000"/>
    </g>
    <g clip-path="url(#p5c6618b957)">
     <use xlink:href="#C0_0_9d8d2f3a61" x="271.735177" y="241.986936" style="fill: #fde725; stroke: #000000"/>
    </g>
    <g clip-path="url(#p5c6618b957)">
     <use xlink:href="#C0_0_9d8d2f3a61" x="209.536922" y="189.7312" style="fill: #fde725; stroke: #000000"/>
    </g>
    <g clip-path="url(#p5c6618b957)">
     <use xlink:href="#C0_0_9d8d2f3a61" x="187.532341" y="126.776278" style="fill: #440154; stroke: #000000"/>
    </g>
    <g clip-path="url(#p5c6618b957)">
     <use xlink:href="#C0_0_9d8d2f3a61" x="238.65178" y="141.8915" style="fill: #440154; stroke: #000000"/>
    </g>
    <g clip-path="url(#p5c6618b957)">
     <use xlink:href="#C0_0_9d8d2f3a61" x="193.387417" y="198.767137" style="fill: #fde725; stroke: #000000"/>
    </g>
    <g clip-path="url(#p5c6618b957)">
     <use xlink:href="#C0_0_9d8d2f3a61" x="208.222883" y="177.957407" style="fill: #fde725; stroke: #000000"/>
    </g>
    <g clip-path="url(#p5c6618b957)">
     <use xlink:href="#C0_0_9d8d2f3a61" x="203.171493" y="162.963327" style="fill: #fde725; stroke: #000000"/>
    </g>
    <g clip-path="url(#p5c6618b957)">
     <use xlink:href="#C0_0_9d8d2f3a61" x="226.064311" y="191.320929" style="fill: #fde725; stroke: #000000"/>
    </g>
    <g clip-path="url(#p5c6618b957)">
     <use xlink:href="#C0_0_9d8d2f3a61" x="133.512853" y="150.221951" style="fill: #440154; stroke: #000000"/>
    </g>
    <g clip-path="url(#p5c6618b957)">
     <use xlink:href="#C0_0_9d8d2f3a61" x="212.942014" y="227.909027" style="fill: #fde725; stroke: #000000"/>
    </g>
    <g clip-path="url(#p5c6618b957)">
     <use xlink:href="#C0_0_9d8d2f3a61" x="234.708256" y="151.643232" style="fill: #440154; stroke: #000000"/>
    </g>
    <g clip-path="url(#p5c6618b957)">
     <use xlink:href="#C0_0_9d8d2f3a61" x="320.49144" y="181.157882" style="fill: #fde725; stroke: #000000"/>
    </g>
    <g clip-path="url(#p5c6618b957)">
     <use xlink:href="#C0_0_9d8d2f3a61" x="207.182139" y="173.649967" style="fill: #fde725; stroke: #000000"/>
    </g>
    <g clip-path="url(#p5c6618b957)">
     <use xlink:href="#C0_0_9d8d2f3a61" x="349.370937" y="206.468231" style="fill: #fde725; stroke: #000000"/>
    </g>
    <g clip-path="url(#p5c6618b957)">
     <use xlink:href="#C0_0_9d8d2f3a61" x="226.458883" y="231.109789" style="fill: #fde725; stroke: #000000"/>
    </g>
   </g>
   <g id="matplotlib.axis_1">
    <g id="xtick_1">
     <g id="line2d_1">
      <defs>
       <path id="m3aa14b8809" d="M 0 0 
L 0 3.5 
" style="stroke: #000000; stroke-width: 0.8"/>
      </defs>
      <g>
       <use xlink:href="#m3aa14b8809" x="69.240014" y="307.584" style="stroke: #000000; stroke-width: 0.8"/>
      </g>
     </g>
     <g id="text_1">
      <!-- 2 -->
      <g transform="translate(61.86892 322.182437) scale(0.1 -0.1)">
       <defs>
        <path id="DejaVuSans-2212" d="M 678 2272 
L 4684 2272 
L 4684 1741 
L 678 1741 
L 678 2272 
z
" transform="scale(0.015625)"/>
        <path id="DejaVuSans-32" d="M 1228 531 
L 3431 531 
L 3431 0 
L 469 0 
L 469 531 
Q 828 903 1448 1529 
Q 2069 2156 2228 2338 
Q 2531 2678 2651 2914 
Q 2772 3150 2772 3378 
Q 2772 3750 2511 3984 
Q 2250 4219 1831 4219 
Q 1534 4219 1204 4116 
Q 875 4013 500 3803 
L 500 4441 
Q 881 4594 1212 4672 
Q 1544 4750 1819 4750 
Q 2544 4750 2975 4387 
Q 3406 4025 3406 3419 
Q 3406 3131 3298 2873 
Q 3191 2616 2906 2266 
Q 2828 2175 2409 1742 
Q 1991 1309 1228 531 
z
" transform="scale(0.015625)"/>
       </defs>
       <use xlink:href="#DejaVuSans-2212"/>
       <use xlink:href="#DejaVuSans-32" x="83.789062"/>
      </g>
     </g>
    </g>
    <g id="xtick_2">
     <g id="line2d_2">
      <g>
       <use xlink:href="#m3aa14b8809" x="134.589077" y="307.584" style="stroke: #000000; stroke-width: 0.8"/>
      </g>
     </g>
     <g id="text_2">
      <!-- 1 -->
      <g transform="translate(127.217983 322.182437) scale(0.1 -0.1)">
       <defs>
        <path id="DejaVuSans-31" d="M 794 531 
L 1825 531 
L 1825 4091 
L 703 3866 
L 703 4441 
L 1819 4666 
L 2450 4666 
L 2450 531 
L 3481 531 
L 3481 0 
L 794 0 
L 794 531 
z
" transform="scale(0.015625)"/>
       </defs>
       <use xlink:href="#DejaVuSans-2212"/>
       <use xlink:href="#DejaVuSans-31" x="83.789062"/>
      </g>
     </g>
    </g>
    <g id="xtick_3">
     <g id="line2d_3">
      <g>
       <use xlink:href="#m3aa14b8809" x="199.938139" y="307.584" style="stroke: #000000; stroke-width: 0.8"/>
      </g>
     </g>
     <g id="text_3">
      <!-- 0 -->
      <g transform="translate(196.756889 322.182437) scale(0.1 -0.1)">
       <defs>
        <path id="DejaVuSans-30" d="M 2034 4250 
Q 1547 4250 1301 3770 
Q 1056 3291 1056 2328 
Q 1056 1369 1301 889 
Q 1547 409 2034 409 
Q 2525 409 2770 889 
Q 3016 1369 3016 2328 
Q 3016 3291 2770 3770 
Q 2525 4250 2034 4250 
z
M 2034 4750 
Q 2819 4750 3233 4129 
Q 3647 3509 3647 2328 
Q 3647 1150 3233 529 
Q 2819 -91 2034 -91 
Q 1250 -91 836 529 
Q 422 1150 422 2328 
Q 422 3509 836 4129 
Q 1250 4750 2034 4750 
z
" transform="scale(0.015625)"/>
       </defs>
       <use xlink:href="#DejaVuSans-30"/>
      </g>
     </g>
    </g>
    <g id="xtick_4">
     <g id="line2d_4">
      <g>
       <use xlink:href="#m3aa14b8809" x="265.287202" y="307.584" style="stroke: #000000; stroke-width: 0.8"/>
      </g>
     </g>
     <g id="text_4">
      <!-- 1 -->
      <g transform="translate(262.105952 322.182437) scale(0.1 -0.1)">
       <use xlink:href="#DejaVuSans-31"/>
      </g>
     </g>
    </g>
    <g id="xtick_5">
     <g id="line2d_5">
      <g>
       <use xlink:href="#m3aa14b8809" x="330.636264" y="307.584" style="stroke: #000000; stroke-width: 0.8"/>
      </g>
     </g>
     <g id="text_5">
      <!-- 2 -->
      <g transform="translate(327.455014 322.182437) scale(0.1 -0.1)">
       <use xlink:href="#DejaVuSans-32"/>
      </g>
     </g>
    </g>
    <g id="xtick_6">
     <g id="line2d_6">
      <g>
       <use xlink:href="#m3aa14b8809" x="395.985327" y="307.584" style="stroke: #000000; stroke-width: 0.8"/>
      </g>
     </g>
     <g id="text_6">
      <!-- 3 -->
      <g transform="translate(392.804077 322.182437) scale(0.1 -0.1)">
       <defs>
        <path id="DejaVuSans-33" d="M 2597 2516 
Q 3050 2419 3304 2112 
Q 3559 1806 3559 1356 
Q 3559 666 3084 287 
Q 2609 -91 1734 -91 
Q 1441 -91 1130 -33 
Q 819 25 488 141 
L 488 750 
Q 750 597 1062 519 
Q 1375 441 1716 441 
Q 2309 441 2620 675 
Q 2931 909 2931 1356 
Q 2931 1769 2642 2001 
Q 2353 2234 1838 2234 
L 1294 2234 
L 1294 2753 
L 1863 2753 
Q 2328 2753 2575 2939 
Q 2822 3125 2822 3475 
Q 2822 3834 2567 4026 
Q 2313 4219 1838 4219 
Q 1578 4219 1281 4162 
Q 984 4106 628 3988 
L 628 4550 
Q 988 4650 1302 4700 
Q 1616 4750 1894 4750 
Q 2613 4750 3031 4423 
Q 3450 4097 3450 3541 
Q 3450 3153 3228 2886 
Q 3006 2619 2597 2516 
z
" transform="scale(0.015625)"/>
       </defs>
       <use xlink:href="#DejaVuSans-33"/>
      </g>
     </g>
    </g>
    <g id="text_7">
     <!-- x -->
     <g transform="translate(233.200625 335.860562) scale(0.1 -0.1)">
      <defs>
       <path id="DejaVuSans-78" d="M 3513 3500 
L 2247 1797 
L 3578 0 
L 2900 0 
L 1881 1375 
L 863 0 
L 184 0 
L 1544 1831 
L 300 3500 
L 978 3500 
L 1906 2253 
L 2834 3500 
L 3513 3500 
z
" transform="scale(0.015625)"/>
      </defs>
      <use xlink:href="#DejaVuSans-78"/>
     </g>
    </g>
   </g>
   <g id="matplotlib.axis_2">
    <g id="ytick_1">
     <g id="line2d_7">
      <defs>
       <path id="m5dd7a3444c" d="M 0 0 
L -3.5 0 
" style="stroke: #000000; stroke-width: 0.8"/>
      </defs>
      <g>
       <use xlink:href="#m5dd7a3444c" x="57.6" y="291.899111" style="stroke: #000000; stroke-width: 0.8"/>
      </g>
     </g>
     <g id="text_8">
      <!-- 1.5 -->
      <g transform="translate(26.317187 295.69833) scale(0.1 -0.1)">
       <defs>
        <path id="DejaVuSans-2e" d="M 684 794 
L 1344 794 
L 1344 0 
L 684 0 
L 684 794 
z
" transform="scale(0.015625)"/>
        <path id="DejaVuSans-35" d="M 691 4666 
L 3169 4666 
L 3169 4134 
L 1269 4134 
L 1269 2991 
Q 1406 3038 1543 3061 
Q 1681 3084 1819 3084 
Q 2600 3084 3056 2656 
Q 3513 2228 3513 1497 
Q 3513 744 3044 326 
Q 2575 -91 1722 -91 
Q 1428 -91 1123 -41 
Q 819 9 494 109 
L 494 744 
Q 775 591 1075 516 
Q 1375 441 1709 441 
Q 2250 441 2565 725 
Q 2881 1009 2881 1497 
Q 2881 1984 2565 2268 
Q 2250 2553 1709 2553 
Q 1456 2553 1204 2497 
Q 953 2441 691 2322 
L 691 4666 
z
" transform="scale(0.015625)"/>
       </defs>
       <use xlink:href="#DejaVuSans-2212"/>
       <use xlink:href="#DejaVuSans-31" x="83.789062"/>
       <use xlink:href="#DejaVuSans-2e" x="147.412109"/>
       <use xlink:href="#DejaVuSans-35" x="179.199219"/>
      </g>
     </g>
    </g>
    <g id="ytick_2">
     <g id="line2d_8">
      <g>
       <use xlink:href="#m5dd7a3444c" x="57.6" y="259.524197" style="stroke: #000000; stroke-width: 0.8"/>
      </g>
     </g>
     <g id="text_9">
      <!-- 1.0 -->
      <g transform="translate(26.317187 263.323416) scale(0.1 -0.1)">
       <use xlink:href="#DejaVuSans-2212"/>
       <use xlink:href="#DejaVuSans-31" x="83.789062"/>
       <use xlink:href="#DejaVuSans-2e" x="147.412109"/>
       <use xlink:href="#DejaVuSans-30" x="179.199219"/>
      </g>
     </g>
    </g>
    <g id="ytick_3">
     <g id="line2d_9">
      <g>
       <use xlink:href="#m5dd7a3444c" x="57.6" y="227.149284" style="stroke: #000000; stroke-width: 0.8"/>
      </g>
     </g>
     <g id="text_10">
      <!-- 0.5 -->
      <g transform="translate(26.317187 230.948503) scale(0.1 -0.1)">
       <use xlink:href="#DejaVuSans-2212"/>
       <use xlink:href="#DejaVuSans-30" x="83.789062"/>
       <use xlink:href="#DejaVuSans-2e" x="147.412109"/>
       <use xlink:href="#DejaVuSans-35" x="179.199219"/>
      </g>
     </g>
    </g>
    <g id="ytick_4">
     <g id="line2d_10">
      <g>
       <use xlink:href="#m5dd7a3444c" x="57.6" y="194.77437" style="stroke: #000000; stroke-width: 0.8"/>
      </g>
     </g>
     <g id="text_11">
      <!-- 0.0 -->
      <g transform="translate(34.696875 198.573589) scale(0.1 -0.1)">
       <use xlink:href="#DejaVuSans-30"/>
       <use xlink:href="#DejaVuSans-2e" x="63.623047"/>
       <use xlink:href="#DejaVuSans-30" x="95.410156"/>
      </g>
     </g>
    </g>
    <g id="ytick_5">
     <g id="line2d_11">
      <g>
       <use xlink:href="#m5dd7a3444c" x="57.6" y="162.399457" style="stroke: #000000; stroke-width: 0.8"/>
      </g>
     </g>
     <g id="text_12">
      <!-- 0.5 -->
      <g transform="translate(34.696875 166.198676) scale(0.1 -0.1)">
       <use xlink:href="#DejaVuSans-30"/>
       <use xlink:href="#DejaVuSans-2e" x="63.623047"/>
       <use xlink:href="#DejaVuSans-35" x="95.410156"/>
      </g>
     </g>
    </g>
    <g id="ytick_6">
     <g id="line2d_12">
      <g>
       <use xlink:href="#m5dd7a3444c" x="57.6" y="130.024543" style="stroke: #000000; stroke-width: 0.8"/>
      </g>
     </g>
     <g id="text_13">
      <!-- 1.0 -->
      <g transform="translate(34.696875 133.823762) scale(0.1 -0.1)">
       <use xlink:href="#DejaVuSans-31"/>
       <use xlink:href="#DejaVuSans-2e" x="63.623047"/>
       <use xlink:href="#DejaVuSans-30" x="95.410156"/>
      </g>
     </g>
    </g>
    <g id="ytick_7">
     <g id="line2d_13">
      <g>
       <use xlink:href="#m5dd7a3444c" x="57.6" y="97.64963" style="stroke: #000000; stroke-width: 0.8"/>
      </g>
     </g>
     <g id="text_14">
      <!-- 1.5 -->
      <g transform="translate(34.696875 101.448848) scale(0.1 -0.1)">
       <use xlink:href="#DejaVuSans-31"/>
       <use xlink:href="#DejaVuSans-2e" x="63.623047"/>
       <use xlink:href="#DejaVuSans-35" x="95.410156"/>
      </g>
     </g>
    </g>
    <g id="ytick_8">
     <g id="line2d_14">
      <g>
       <use xlink:href="#m5dd7a3444c" x="57.6" y="65.274716" style="stroke: #000000; stroke-width: 0.8"/>
      </g>
     </g>
     <g id="text_15">
      <!-- 2.0 -->
      <g transform="translate(34.696875 69.073935) scale(0.1 -0.1)">
       <use xlink:href="#DejaVuSans-32"/>
       <use xlink:href="#DejaVuSans-2e" x="63.623047"/>
       <use xlink:href="#DejaVuSans-30" x="95.410156"/>
      </g>
     </g>
    </g>
    <g id="text_16">
     <!-- y -->
     <g transform="translate(20.2375 177.487375) rotate(-90) scale(0.1 -0.1)">
      <defs>
       <path id="DejaVuSans-79" d="M 2059 -325 
Q 1816 -950 1584 -1140 
Q 1353 -1331 966 -1331 
L 506 -1331 
L 506 -850 
L 844 -850 
Q 1081 -850 1212 -737 
Q 1344 -625 1503 -206 
L 1606 56 
L 191 3500 
L 800 3500 
L 1894 763 
L 2988 3500 
L 3597 3500 
L 2059 -325 
z
" transform="scale(0.015625)"/>
      </defs>
      <use xlink:href="#DejaVuSans-79"/>
     </g>
    </g>
   </g>
   <g id="patch_3">
    <path d="M 57.6 307.584 
L 57.6 41.472 
" style="fill: none; stroke: #000000; stroke-width: 0.8; stroke-linejoin: miter; stroke-linecap: square"/>
   </g>
   <g id="patch_4">
    <path d="M 414.72 307.584 
L 414.72 41.472 
" style="fill: none; stroke: #000000; stroke-width: 0.8; stroke-linejoin: miter; stroke-linecap: square"/>
   </g>
   <g id="patch_5">
    <path d="M 57.6 307.584 
L 414.72 307.584 
" style="fill: none; stroke: #000000; stroke-width: 0.8; stroke-linejoin: miter; stroke-linecap: square"/>
   </g>
   <g id="patch_6">
    <path d="M 57.6 41.472 
L 414.72 41.472 
" style="fill: none; stroke: #000000; stroke-width: 0.8; stroke-linejoin: miter; stroke-linecap: square"/>
   </g>
  </g>
 </g>
 <defs>
  <clipPath id="p5c6618b957">
   <rect x="57.6" y="41.472" width="357.12" height="266.112"/>
  </clipPath>
 </defs>
</svg>
